<svg xmlns="http://www.w3.org/2000/svg" xmlns:xlink="http://www.w3.org/1999/xlink" viewBox="0 0 470 309"><defs><rect id="a" width="470" height="309" rx="8"/><path id="d" d="M-51-21h252v339H-51z"/><filter id="c" width="114.4%" height="110.7%" x="-7.2%" y="-3.5%" filterUnits="objectBoundingBox"><feMorphology in="SourceAlpha" radius="1.85" result="shadowSpreadOuter1"/><feOffset dy="3.8" in="shadowSpreadOuter1" result="shadowOffsetOuter1"/><feGaussianBlur in="shadowOffsetOuter1" result="shadowBlurOuter1" stdDeviation="3.75"/><feColorMatrix in="shadowBlurOuter1" result="shadowMatrixOuter1" values="0 0 0 0 0 0 0 0 0 0 0 0 0 0 0 0 0 0 0.3 0"/><feMorphology in="SourceAlpha" radius="1.25" result="shadowSpreadOuter2"/><feOffset dy="6.3" in="shadowSpreadOuter2" result="shadowOffsetOuter2"/><feGaussianBlur in="shadowOffsetOuter2" result="shadowBlurOuter2" stdDeviation="6.25"/><feColorMatrix in="shadowBlurOuter2" result="shadowMatrixOuter2" values="0 0 0 0 0.196078431 0 0 0 0 0.196078431 0 0 0 0 0.364705882 0 0 0 0.25 0"/><feMerge><feMergeNode in="shadowMatrixOuter1"/><feMergeNode in="shadowMatrixOuter2"/></feMerge></filter></defs><g fill="none" fill-rule="evenodd"><mask id="b" fill="#fff"><use xlink:href="#a"/></mask><use fill="#FFF" xlink:href="#a"/><g mask="url(#b)"><use fill="#000" filter="url(#c)" xlink:href="#d"/><use fill="#FFF" xlink:href="#d"/></g><path fill="#1B14A7" mask="url(#b)" d="M-15-12h512v47H-15z"/><path fill="#2C3A57" fill-rule="nonzero" d="M25.23 71l.55-1.48h2.8l.55 1.48h1.16l-2.45-6.46h-1.3L24.09 71h1.14zm2.96-2.48h-2.03l1-2.7 1.03 2.7zm4.65 2.58a2 2 0 0 0 2-1.37l-.94-.47c-.13.52-.48.9-1.06.9-.74 0-1.24-.55-1.24-1.52 0-.96.5-1.53 1.24-1.53.58 0 .93.39 1.06.9l.91-.5c-.25-.75-.95-1.33-1.97-1.33-1.35 0-2.32 1-2.32 2.46s.97 2.46 2.32 2.46zm4.77 0a2 2 0 0 0 1.99-1.37l-.93-.47c-.13.52-.48.9-1.06.9-.74 0-1.24-.55-1.24-1.52 0-.96.5-1.53 1.24-1.53.58 0 .93.39 1.06.9l.91-.5c-.25-.75-.95-1.33-1.97-1.33-1.35 0-2.32 1-2.32 2.46s.97 2.46 2.32 2.46zm4.72 0c1.33 0 2.28-1 2.28-2.46 0-1.47-.95-2.45-2.28-2.45-1.33 0-2.28.98-2.28 2.45 0 1.47.95 2.46 2.28 2.46zm0-.91c-.73 0-1.19-.58-1.19-1.55 0-.96.46-1.55 1.19-1.55s1.19.59 1.19 1.55c0 .97-.46 1.55-1.19 1.55zm4.77.9c.62 0 1.02-.28 1.3-.6V71h1.07v-4.72H48.4v2.8c0 .68-.48 1.04-.97 1.04-.59 0-.84-.37-.84-.95v-2.9H45.5v3.14c0 1.01.62 1.69 1.6 1.69zm4.68-.09v-2.77c0-.68.5-1.04.98-1.04.6 0 .83.43.83 1.01V71h1.08v-3.11c0-1.02-.6-1.7-1.58-1.7-.62 0-1.04.27-1.3.59v-.5H50.7V71h1.08zm5.57.05c.28 0 .55-.02.74-.06v-.9l-.44.02c-.38 0-.63-.05-.63-.47V67.2h1v-.91h-1v-1.4h-1.06v1.4h-.66v.91h.66v2.62c0 .97.49 1.24 1.39 1.24zm6.04.05c1.32 0 2.08-1.12 2.08-2.46 0-1.34-.76-2.45-2.08-2.45-.61 0-1.06.24-1.36.59v-2.24h-1.08V71h1.08v-.5c.3.36.75.6 1.36.6zm-.22-.95c-.66 0-1.17-.5-1.17-1.36v-.28c0-.9.5-1.38 1.17-1.38.78 0 1.2.61 1.2 1.51s-.42 1.51-1.2 1.51zm4.48.93c.61 0 1.1-.2 1.4-.53.17.39.58.54 1.36.45v-.84c-.3.04-.41-.04-.41-.31V67.8c0-1.09-.69-1.63-1.82-1.63-1.04 0-1.74.62-1.97 1.4l1.02.23c.12-.45.4-.69.9-.69.58 0 .82.28.82.73v.08l-1.3.27c-.92.19-1.6.59-1.6 1.49 0 .84.7 1.4 1.6 1.4zm.16-.86c-.41 0-.68-.21-.68-.58 0-.42.34-.57.8-.67l1.02-.21v.57c0 .58-.56.89-1.14.89zm4.54.78v-6.46h-1.08V71h1.08zm2.48.08c.61 0 1.11-.2 1.4-.53.17.39.58.54 1.37.45v-.84c-.3.04-.42-.04-.42-.31V67.8c0-1.09-.68-1.63-1.82-1.63-1.04 0-1.73.62-1.97 1.4l1.02.23c.13-.45.4-.69.9-.69.58 0 .82.28.82.73v.08l-1.3.27c-.91.19-1.59.59-1.59 1.49 0 .84.7 1.4 1.6 1.4zm.17-.86c-.42 0-.69-.21-.69-.58 0-.42.34-.57.8-.67l1.02-.21v.57c0 .58-.56.89-1.13.89zm4.54.78v-2.77c0-.68.5-1.04.98-1.04.6 0 .83.43.83 1.01V71h1.08v-3.11c0-1.02-.6-1.7-1.59-1.7-.61 0-1.03.27-1.3.59v-.5h-1.08V71h1.08zm6.1.1a2 2 0 0 0 2-1.37l-.94-.47c-.13.52-.48.9-1.06.9-.73 0-1.24-.55-1.24-1.52 0-.96.5-1.53 1.24-1.53.58 0 .93.39 1.06.9l.91-.5c-.25-.75-.95-1.33-1.97-1.33-1.35 0-2.32 1-2.32 2.46s.97 2.46 2.32 2.46zm4.74 0c.95 0 1.7-.5 2.03-1.32l-.93-.36c-.14.5-.57.76-1.1.76-.7 0-1.18-.5-1.26-1.3h3.31v-.36c0-1.3-.73-2.33-2.1-2.33-1.3 0-2.24 1.07-2.24 2.45 0 1.46.94 2.46 2.3 2.46zm.97-3.03h-2.17c.16-.64.59-.98 1.15-.98.68 0 1 .45 1.02.98zM25.75 160v-6.46h-1.15V160h1.15zm2.36 0v-2.77c0-.68.5-1.04.98-1.04.6 0 .83.43.83 1.01v2.8H31v-3.11c0-1.02-.6-1.7-1.59-1.7-.6 0-1.03.27-1.3.59v-.5h-1.08V160h1.08zm5.57.05c.27 0 .54-.02.74-.06v-.9l-.44.02c-.39 0-.63-.05-.63-.47v-2.45h1v-.91h-1v-1.4H32.3v1.4h-.66v.91h.66v2.62c0 .97.48 1.24 1.39 1.24zm3.6.05c.95 0 1.7-.5 2.02-1.32l-.92-.35c-.15.48-.57.75-1.1.75-.7 0-1.18-.5-1.26-1.3h3.31v-.36c0-1.3-.73-2.34-2.1-2.34-1.3 0-2.25 1.08-2.25 2.46 0 1.46.95 2.46 2.3 2.46zm.96-3.03h-2.17c.17-.64.6-.98 1.16-.98.68 0 1 .45 1.01.98zm3.08 2.93v-2.48c0-.76.52-1.2 1.2-1.2.16 0 .26 0 .4.03v-1.08l-.3-.02c-.61 0-1.1.29-1.3.73v-.7h-1.08V160h1.08zm4.21.1c.95 0 1.7-.5 2.03-1.32l-.93-.35c-.14.48-.56.75-1.1.75-.69 0-1.17-.5-1.26-1.3h3.32v-.36c0-1.3-.73-2.34-2.1-2.34-1.31 0-2.25 1.08-2.25 2.46 0 1.46.94 2.46 2.3 2.46zm.97-3.03h-2.17c.16-.64.6-.98 1.15-.98.68 0 1 .45 1.02.98zm3.66 3.03c1.08 0 1.95-.61 1.95-1.57 0-1.08-1-1.25-1.81-1.42-.6-.13-.94-.19-.94-.53 0-.32.3-.51.73-.51.52 0 .98.24 1.24.66l.73-.65c-.34-.53-1.08-.9-1.9-.9-1.1 0-1.85.63-1.85 1.5 0 1 .86 1.2 1.6 1.35.75.15 1.15.2 1.15.6 0 .43-.43.59-.89.59-.55 0-1.09-.3-1.36-.77l-.81.65c.42.65 1.3 1 2.16 1zm4.36-.05c.28 0 .55-.02.74-.06v-.9l-.44.02c-.38 0-.63-.05-.63-.47v-2.45h1v-.91h-1v-1.4h-1.06v1.4h-.66v.91h.66v2.62c0 .97.49 1.24 1.39 1.24zm4.68-.05v-2.48c0-.76.52-1.2 1.2-1.2.16 0 .27 0 .4.03v-1.08l-.3-.02c-.6 0-1.1.29-1.3.73v-.7h-1.08V160h1.08zm3.56.08c.61 0 1.1-.2 1.4-.53.16.39.58.54 1.36.45v-.84c-.3.04-.41-.04-.41-.31v-2.04c0-1.09-.69-1.63-1.82-1.63-1.04 0-1.74.62-1.97 1.4l1.02.23c.12-.46.4-.69.9-.69.58 0 .81.28.81.73v.08l-1.3.27c-.91.19-1.59.59-1.59 1.49 0 .84.7 1.4 1.6 1.4zm.16-.86c-.41 0-.68-.21-.68-.58 0-.42.34-.57.8-.66l1.01-.22v.58c0 .57-.55.88-1.13.88zm4.95.83c.28 0 .55-.02.74-.06v-.9l-.44.02c-.39 0-.63-.05-.63-.47v-2.45h1v-.91h-1v-1.4H66.5v1.4h-.66v.91h.66v2.62c0 .97.49 1.24 1.39 1.24zm3.6.05c.95 0 1.7-.5 2.03-1.32l-.93-.35c-.14.48-.57.75-1.1.75-.7 0-1.18-.5-1.26-1.3h3.31v-.36c0-1.3-.73-2.34-2.1-2.34-1.3 0-2.24 1.08-2.24 2.46 0 1.46.94 2.46 2.3 2.46zm.96-3.03h-2.16c.16-.64.59-.98 1.15-.98.68 0 1 .45 1.01.98zm-45.2 87.03c1.31 0 2.21-.72 2.6-1.86l-1.09-.37c-.2.75-.75 1.21-1.5 1.21-1.06 0-1.82-.92-1.82-2.31 0-1.4.76-2.31 1.82-2.31.75 0 1.3.45 1.5 1.21l1.08-.37a2.58 2.58 0 0 0-2.58-1.86c-1.72 0-2.97 1.37-2.97 3.33s1.25 3.33 2.97 3.33zm4.68-.02c.6 0 1.1-.2 1.4-.53.16.39.58.54 1.36.45v-.84c-.3.04-.41-.04-.41-.31v-2.04c0-1.09-.69-1.63-1.82-1.63-1.05 0-1.74.62-1.97 1.4l1.01.23c.13-.46.4-.69.91-.69.58 0 .81.28.81.73v.08l-1.3.27c-.91.19-1.59.59-1.59 1.49 0 .84.7 1.4 1.6 1.4zm.16-.86c-.42 0-.69-.21-.69-.58 0-.42.35-.57.8-.66l1.02-.22v.58c0 .57-.56.88-1.13.88zm4.54.78v-2.48c0-.76.52-1.2 1.2-1.2.16 0 .27 0 .4.03v-1.08l-.3-.02c-.6 0-1.1.29-1.3.73v-.7h-1.08V244h1.08zm4.05.1c.6 0 1.06-.24 1.35-.6v.5h1.08v-6.46h-1.08v2.24c-.3-.35-.74-.6-1.36-.6-1.32 0-2.07 1.12-2.07 2.46 0 1.34.75 2.46 2.07 2.46zm.21-.95c-.78 0-1.2-.6-1.2-1.5s.42-1.52 1.2-1.52c.67 0 1.17.49 1.17 1.38v.28c0 .87-.5 1.36-1.17 1.36zm5.13.95c1.07 0 1.94-.61 1.94-1.57 0-1.08-1-1.25-1.8-1.42-.6-.13-.94-.19-.94-.53 0-.32.28-.51.73-.51.52 0 .97.24 1.24.66l.73-.65c-.35-.53-1.08-.9-1.91-.9-1.1 0-1.85.63-1.85 1.5 0 1 .86 1.2 1.6 1.35.75.15 1.15.2 1.15.6 0 .43-.42.59-.88.59-.55 0-1.1-.3-1.37-.77l-.81.65c.42.65 1.3 1 2.17 1zm5.91-5.45v-1.11H50.8v1.1h1.12zM51.9 244v-4.72h-1.08V244h1.08zm2.9.1c1.08 0 1.95-.61 1.95-1.57 0-1.08-1-1.25-1.8-1.42-.6-.13-.95-.19-.95-.53 0-.32.3-.51.73-.51.53 0 .98.24 1.25.66l.73-.65c-.35-.53-1.09-.9-1.91-.9-1.1 0-1.85.63-1.85 1.5 0 1 .86 1.2 1.6 1.35.75.15 1.15.2 1.15.6 0 .43-.43.59-.89.59-.54 0-1.08-.3-1.36-.77l-.81.65c.42.65 1.3 1 2.17 1zm4.55 0c1.07 0 1.94-.61 1.94-1.57 0-1.08-1-1.25-1.8-1.42-.6-.13-.94-.19-.94-.53 0-.32.28-.51.73-.51.52 0 .97.24 1.24.66l.73-.65c-.35-.53-1.08-.9-1.91-.9-1.1 0-1.85.63-1.85 1.5 0 1 .86 1.2 1.6 1.35.75.15 1.15.2 1.15.6 0 .43-.43.59-.88.59-.55 0-1.1-.3-1.37-.77l-.81.65c.42.65 1.3 1 2.17 1zm4.43 0c.61 0 1.02-.29 1.29-.6v.5h1.08v-4.72h-1.08v2.8c0 .68-.49 1.04-.97 1.04-.59 0-.84-.37-.84-.95v-2.9h-1.08v3.14c0 1.01.61 1.69 1.6 1.69zm5.6 0c.94 0 1.69-.5 2.02-1.32l-.93-.35c-.14.48-.56.75-1.1.75-.69 0-1.18-.5-1.26-1.3h3.32v-.36c0-1.3-.73-2.34-2.1-2.34-1.31 0-2.25 1.08-2.25 2.46 0 1.46.94 2.46 2.3 2.46zm.96-3.03h-2.17c.16-.64.6-.98 1.15-.98.68 0 1 .45 1.02.98zm3.77 3.03c.61 0 1.06-.24 1.36-.6v.5h1.08v-6.46h-1.08v2.24c-.3-.35-.75-.6-1.36-.6-1.32 0-2.08 1.12-2.08 2.46 0 1.34.76 2.46 2.08 2.46zm.22-.95c-.78 0-1.2-.6-1.2-1.5s.42-1.52 1.2-1.52c.67 0 1.17.49 1.17 1.38v.28c0 .87-.5 1.36-1.17 1.36z" mask="url(#b)"/><path fill="#635BFF" fill-rule="nonzero" d="M31.04 103.2v-2.13c2.77-.25 4.86-1.96 4.86-4.54 0-2.99-2.44-3.71-4.86-4.24v-5.83a4.45 4.45 0 0 1 3.54 2.68l1.17-.86c-.77-1.69-2.4-2.88-4.71-3.12v-2.13h-1.23v2.09c-2.69.15-4.84 1.8-4.84 4.3 0 2.67 2.18 3.38 4.44 3.92l.4.1v6.3a5.14 5.14 0 0 1-4.38-3.14l-1.19.97c.86 1.98 3.06 3.32 5.57 3.5v2.13h1.23zM29.81 92c-1.85-.42-3.41-.94-3.41-2.64 0-1.67 1.47-2.84 3.4-2.95v5.6zm1.23 7.75v-6.03c1.87.46 3.43 1.08 3.43 2.88 0 1.85-1.47 2.95-3.43 3.15zm11.95 1.47a5.26 5.26 0 0 0 5.37-5.3c0-2.97-2.04-5.24-5.08-5.24-1.47 0-2.62.62-3.34 1.39l.48-5.52h7.2V85.2h-8.39l-.68 7.95 1.43.28a3.9 3.9 0 0 1 3.17-1.45c2.22 0 3.76 1.76 3.76 3.98 0 2.25-1.7 3.96-3.92 3.96-2.17 0-3.7-1.4-4.07-3.65l-1.47.37c.55 2.93 2.64 4.58 5.54 4.58zm7.05 2.53c1.65-.04 2.62-1.03 2.62-2.64v-2.22H50.7V101h.88v.18c0 1.1-.55 1.65-1.54 1.71v.86zm9.62-2.75V85.12h-1.14c-.11 1.82-.6 2.4-2.36 2.48l-1.84.09v1.17h3.8V101h1.54zm8.15 0V85.12h-1.14c-.11 1.82-.6 2.4-2.36 2.48l-1.85.09v1.17h3.8V101h1.55zm13.7 0v-1.34h-8.66l4.3-3.54c2.28-1.9 3.95-3.72 3.95-6.27 0-2.89-1.95-4.87-5.06-4.87-2.86 0-5.03 2.1-5.03 4.8 0 .66.1 1.28.4 1.96h1.44c-.24-.6-.4-1.23-.4-1.9a3.45 3.45 0 0 1 3.57-3.54c2.14 0 3.57 1.43 3.57 3.59s-1.46 3.63-3.61 5.46l-5.22 4.35v1.3H81.5zm1.91 2.75c1.65-.04 2.62-1.03 2.62-2.64v-2.22h-1.96V101h.88v.18c0 1.1-.55 1.65-1.54 1.71v.86zm10.64-2.53c3.14 0 5.28-1.98 5.28-4.6 0-2.26-1.5-3.52-3.13-3.91a3.68 3.68 0 0 0 2.62-3.5c0-2.49-1.76-4.23-4.73-4.23a5.24 5.24 0 0 0-5.37 4.5l1.39.34c.4-2.2 1.87-3.52 3.94-3.52 2.02 0 3.3 1.13 3.3 2.95 0 1.76-1.4 2.84-3.37 2.84h-1.8v1.3h1.78c2.1 0 3.85 1.1 3.85 3.17 0 2.04-1.52 3.36-3.79 3.36-2.2 0-3.93-1.38-4.29-3.83l-1.5.38c.51 3.12 2.89 4.75 5.82 4.75zm16.06-.22v-4.33h3.17v-1.28h-3.17V85.2h-1.98l-7.24 10.28v1.19h7.77V101h1.45zm-1.45-5.61h-6.16l6.16-8.71v8.71zm11.47 5.83a5.26 5.26 0 0 0 5.37-5.3c0-2.97-2.05-5.24-5.08-5.24-1.48 0-2.62.62-3.35 1.39l.49-5.52h7.19V85.2h-8.38l-.68 7.95 1.43.28a3.9 3.9 0 0 1 3.16-1.45c2.23 0 3.77 1.76 3.77 3.98 0 2.25-1.7 3.96-3.92 3.96-2.18 0-3.7-1.4-4.07-3.65l-1.47.37c.55 2.93 2.64 4.58 5.54 4.58zm9.67-.22v-2.11h-1.96V101h1.96zm7.33.22c3.4 0 6.16-3.08 6.16-8.23 0-4.38-1.7-8-5.74-8a5.27 5.27 0 0 0-5.35 5.36c0 3 2.24 5.3 5.13 5.3a4.85 4.85 0 0 0 4.5-2.99c.03.2.03.42.03.6 0 4.22-2.14 6.66-4.69 6.66-1.98 0-3.12-1.16-3.56-2.88l-1.32.5c.64 2.23 2.18 3.68 4.84 3.68zm.37-6.89a3.87 3.87 0 0 1-3.87-4.02 3.9 3.9 0 0 1 3.92-4.03 3.9 3.9 0 0 1 3.91 4.03 3.94 3.94 0 0 1-3.96 4.02zm13.78 6.89c3.63 0 5.88-3.3 5.88-8.12 0-4.82-2.25-8.12-5.88-8.12-3.6 0-5.85 3.3-5.85 8.12 0 4.82 2.24 8.12 5.85 8.12zm0-1.34c-2.75 0-4.33-2.8-4.33-6.78 0-3.98 1.58-6.77 4.33-6.77 2.77 0 4.36 2.79 4.36 6.77 0 3.98-1.59 6.78-4.36 6.78zM30.78 191.22c3.63 0 5.87-3.3 5.87-8.12 0-4.82-2.24-8.12-5.87-8.12-3.61 0-5.86 3.3-5.86 8.12 0 4.82 2.25 8.12 5.86 8.12zm0-1.34c-2.75 0-4.34-2.8-4.34-6.78 0-3.98 1.59-6.77 4.34-6.77 2.77 0 4.35 2.79 4.35 6.77 0 3.98-1.58 6.78-4.35 6.78zM40.93 191v-2.11h-1.96V191h1.96zm13.33 0v-1.34h-8.64l4.29-3.54c2.29-1.9 3.96-3.72 3.96-6.27 0-2.89-1.96-4.87-5.06-4.87-2.86 0-5.04 2.1-5.04 4.8 0 .66.11 1.28.4 1.96h1.45c-.24-.6-.4-1.23-.4-1.9a3.45 3.45 0 0 1 3.57-3.54c2.13 0 3.56 1.43 3.56 3.59s-1.45 3.63-3.6 5.46l-5.22 4.35v1.3h10.73zm7.16.22a5.26 5.26 0 0 0 5.37-5.3c0-2.97-2.05-5.24-5.08-5.24-1.48 0-2.62.62-3.35 1.39l.49-5.52h7.2v-1.35h-8.39l-.68 7.95 1.43.28a3.9 3.9 0 0 1 3.17-1.45c2.22 0 3.76 1.76 3.76 3.98 0 2.25-1.7 3.96-3.92 3.96-2.18 0-3.7-1.4-4.07-3.65l-1.47.37c.55 2.93 2.64 4.58 5.54 4.58zm10.42-8.54c1.84 0 2.92-1.56 2.92-3.85 0-2.28-1.08-3.85-2.92-3.85-1.85 0-2.93 1.57-2.93 3.85 0 2.3 1.08 3.85 2.93 3.85zm-.16 8.32l10.54-15.8h-1.43L70.25 191h1.43zm.16-9.4c-1.06 0-1.7-1.12-1.7-2.77 0-1.67.64-2.79 1.7-2.79 1.05 0 1.67 1.12 1.67 2.8 0 1.64-.62 2.77-1.67 2.77zm8.8 9.62c1.82 0 2.92-1.56 2.92-3.85s-1.1-3.85-2.92-3.85c-1.85 0-2.93 1.56-2.93 3.85s1.08 3.85 2.93 3.85zm0-1.06c-1.06 0-1.7-1.12-1.7-2.79 0-1.65.64-2.77 1.7-2.77 1.05 0 1.67 1.12 1.67 2.77 0 1.67-.62 2.8-1.67 2.8zm-50.26 83.06c3.15 0 5.28-1.98 5.28-4.6 0-2.26-1.5-3.52-3.12-3.91a3.68 3.68 0 0 0 2.61-3.5c0-2.49-1.76-4.23-4.73-4.23a5.24 5.24 0 0 0-5.36 4.5l1.38.34c.4-2.2 1.87-3.52 3.94-3.52 2.02 0 3.3 1.13 3.3 2.95 0 1.76-1.39 2.84-3.37 2.84h-1.8v1.3h1.78c2.11 0 3.85 1.1 3.85 3.17 0 2.04-1.52 3.36-3.78 3.36-2.2 0-3.94-1.38-4.3-3.83l-1.49.38c.5 3.12 2.88 4.75 5.81 4.75zm6.96 2.53c1.65-.04 2.62-1.03 2.62-2.64v-2.22H38V273h.88v.18c0 1.1-.55 1.65-1.54 1.71v.86zM53.3 273v-1.34h-8.65l4.3-3.54c2.28-1.9 3.95-3.72 3.95-6.27 0-2.89-1.96-4.87-5.06-4.87-2.86 0-5.04 2.1-5.04 4.8 0 .66.11 1.28.4 1.96h1.45c-.24-.6-.4-1.23-.4-1.9a3.45 3.45 0 0 1 3.57-3.54c2.13 0 3.56 1.43 3.56 3.59s-1.45 3.63-3.6 5.46l-5.22 4.35v1.3H53.3zm6.87 0v-15.88h-1.15c-.1 1.82-.59 2.4-2.35 2.48l-1.85.09v1.17h3.8V273h1.55zm8.63.22c3.15 0 5.28-1.98 5.28-4.6 0-2.26-1.5-3.52-3.12-3.91a3.68 3.68 0 0 0 2.61-3.5c0-2.49-1.76-4.23-4.73-4.23a5.24 5.24 0 0 0-5.36 4.5l1.38.34c.4-2.2 1.87-3.52 3.94-3.52 2.02 0 3.3 1.13 3.3 2.95 0 1.76-1.39 2.84-3.37 2.84h-1.8v1.3h1.78c2.11 0 3.85 1.1 3.85 3.17 0 2.04-1.52 3.36-3.78 3.36-2.2 0-3.94-1.38-4.3-3.83l-1.49.38c.5 3.12 2.88 4.75 5.8 4.75z" mask="url(#b)"/><path fill="#FFF" fill-rule="nonzero" d="M54.86 22c3.21 0 5.1-2.37 5.1-5.27 0-2.57-1.59-4.06-4.3-4.06h-3L51.33 22h3.52zm.07-1.64h-1.5l.85-6.06h1.2c1.63 0 2.6.88 2.6 2.55 0 1.95-1.2 3.51-3.15 3.51zm8.88 1.78a3.3 3.3 0 0 0 3.1-1.88l-1.4-.63a1.7 1.7 0 0 1-1.57 1.02c-.85 0-1.46-.56-1.5-1.67h4.68l.07-.44c.3-2.01-.78-3.5-2.8-3.5-2.2 0-3.67 1.84-3.67 3.98 0 1.88 1.2 3.12 3.09 3.12zm1.72-4.4h-2.9c.28-.74.85-1.25 1.65-1.25.83 0 1.3.53 1.25 1.26zM69.75 22l1.32-9.33h-1.82L67.93 22h1.82zm4.58-7.64l.24-1.7H72.7l-.23 1.7h1.85zM73.24 22l.97-6.84h-1.82L71.42 22h1.82zm5.1 0l3.57-6.84H80l-2.26 4.63-.78-4.63h-1.84l1.4 6.84h1.81zm6.5.14a3.3 3.3 0 0 0 3.11-1.88l-1.4-.63a1.7 1.7 0 0 1-1.57 1.02c-.85 0-1.46-.56-1.5-1.67h4.68l.07-.44c.3-2.01-.78-3.5-2.8-3.5-2.2 0-3.68 1.84-3.68 3.98 0 1.88 1.21 3.12 3.1 3.12zm1.72-4.4h-2.88c.27-.74.84-1.25 1.64-1.25.83 0 1.3.53 1.24 1.26zM90.8 22l.48-3.4a1.86 1.86 0 0 1 1.93-1.72c.15 0 .36.01.57.05l.25-1.77a2.93 2.93 0 0 0-.5-.04c-.85 0-1.52.4-1.9.98l.13-.94h-1.81L88.97 22h1.82zm5.26 0l1.31-9.33h-1.82L94.23 22h1.82zm2.28 2.4c1.27 0 1.91-.53 2.66-2.01l3.72-7.23h-1.9l-2.14 4.5-.91-4.5h-1.82l1.5 6.55-.28.56c-.23.47-.5.64-.95.64-.18 0-.38-.03-.57-.08l-.2 1.47c.3.07.58.1.89.1z" mask="url(#b)"/><g fill-rule="nonzero" mask="url(#b)"><path fill="#FFF" d="M44.72 16.92l-2.82-.39-1.14-2.91c-.3-.78-1.05-1.26-1.98-1.26h-3.27c-.27 0-.51.18-.54.45l-1.08 5.97a.55.55 0 0 1-.54.45H19.01c-.27 0-.51.18-.54.45l-.3 1.71c-.06.33.21.66.54.66h1.17a2.04 2.04 0 0 0 2.07 2.31 3.16 3.16 0 0 0 2.91-2.31h13.05a2.04 2.04 0 0 0 2.07 2.31 3.13 3.13 0 0 0 2.91-2.31h1.41c.27 0 .51-.18.54-.45l.63-3.57c.12-.57-.21-1.05-.75-1.11zm-21 4.92a1.63 1.63 0 0 1-1.56 1.32c-.72 0-1.23-.6-1.08-1.32.12-.72.81-1.32 1.56-1.32.72 0 1.23.6 1.08 1.32zm12.39-5.4l.45-2.52h1.92a.8.8 0 0 1 .75.48l.81 2.04h-3.93zm5.64 5.4a1.63 1.63 0 0 1-1.56 1.32c-.75 0-1.23-.6-1.08-1.32.12-.72.81-1.32 1.56-1.32s1.2.6 1.08 1.32z"/><path fill="#7A73FF" d="M33.23 17.97l1.47-8.31a.57.57 0 0 0-.54-.66H19.85a.93.93 0 0 0-.93.93c0 .51.42.93.93.93H21.41c.51 0 .93.42.93.93s-.42.93-.93.93h-2.52a.93.93 0 0 0-.93.93c0 .51.42.93.93.93h1.56c.51 0 .93.42.93.93s-.42.93-.93.96h-2.52a.93.93 0 0 0-.93.93c0 .51.42.93.93.93h14.73c.3.12.54-.09.57-.36z"/></g><path fill="#FFF" fill-rule="nonzero" d="M349.57 20.47c2 0 3.25-1.26 3.25-3.23 0-1.98-1.24-3.24-3.25-3.24h-2.16v6.47h2.16zm0-1h-1.04V15h1.03c1.34 0 2.12.88 2.12 2.25 0 1.35-.78 2.24-2.11 2.24zm6.22 1.1c.95 0 1.7-.5 2.03-1.33l-.93-.35c-.14.49-.57.76-1.1.76-.7 0-1.18-.5-1.26-1.3h3.31v-.37c0-1.3-.73-2.33-2.1-2.33-1.3 0-2.24 1.07-2.24 2.46 0 1.46.94 2.46 2.3 2.46zm.96-3.04h-2.16c.16-.64.59-.97 1.15-.97.68 0 1 .45 1.01.97zm3.1 2.94V14h-1.08v6.47h1.08zm2.36-5.36v-1.1h-1.12v1.1h1.12zm-.02 5.36v-4.73h-1.08v4.73h1.08zm3.52 0l1.73-4.73h-1.12l-1.14 3.43-1.15-3.43h-1.14l1.73 4.73h1.09zm4.31.1c.95 0 1.7-.5 2.03-1.33l-.93-.35c-.14.49-.57.76-1.1.76-.69 0-1.18-.5-1.26-1.3h3.32v-.37c0-1.3-.73-2.33-2.1-2.33-1.32 0-2.25 1.07-2.25 2.46 0 1.46.94 2.46 2.3 2.46zm.97-3.04h-2.17c.16-.64.6-.97 1.15-.97.68 0 1 .45 1.02.97zm3.1 2.94v-2.49c0-.75.52-1.2 1.2-1.2.15 0 .26.01.4.03v-1.08l-.3-.02c-.61 0-1.1.3-1.3.73v-.7H373v4.73h1.08zm2.94 1.65c.98 0 1.4-.5 1.67-1.21l1.94-5.17h-1.12l-1.13 3.31-1.16-3.3h-1.13l1.71 4.55-.18.44c-.15.37-.32.47-.68.47-.13 0-.22 0-.36-.02v.9c.15.02.22.03.44.03zm7.96-1.55c1.07 0 1.95-.62 1.95-1.57 0-1.08-1.01-1.25-1.81-1.42-.6-.13-.94-.2-.94-.53 0-.32.29-.52.73-.52.52 0 .97.25 1.24.67l.73-.66c-.34-.52-1.08-.89-1.9-.89-1.1 0-1.85.63-1.85 1.5 0 1 .85 1.2 1.6 1.35.75.15 1.14.2 1.14.6 0 .42-.42.58-.88.58-.55 0-1.09-.3-1.37-.76l-.8.65c.42.64 1.29 1 2.16 1zm3.98 1.52v-2.12c.3.35.74.6 1.35.6 1.33 0 2.08-1.12 2.08-2.46 0-1.34-.75-2.46-2.08-2.46-.6 0-1.06.24-1.35.6v-.5h-1.08v6.34h1.08zm1.14-2.47c-.67 0-1.17-.5-1.17-1.37v-.28c0-.89.5-1.37 1.17-1.37.78 0 1.2.6 1.2 1.5s-.42 1.52-1.2 1.52zm5.25.95c.94 0 1.69-.5 2.02-1.33l-.92-.35c-.15.49-.57.76-1.1.76-.7 0-1.18-.5-1.26-1.3h3.31v-.37c0-1.3-.73-2.33-2.1-2.33-1.31 0-2.25 1.07-2.25 2.46 0 1.46.95 2.46 2.3 2.46zm.96-3.04h-2.17c.16-.64.6-.97 1.15-.97.69 0 1.01.45 1.02.97zm3.1 2.94v-2.78c0-.67.5-1.03.98-1.03.6 0 .83.42.83 1v2.8h1.08v-3.1c0-1.02-.6-1.7-1.58-1.7-.62 0-1.04.27-1.31.59v-.5h-1.08v4.72h1.08zm5.89.1c.61 0 1.06-.25 1.36-.6v.5h1.08V14h-1.08v2.25c-.3-.36-.75-.6-1.36-.6-1.32 0-2.08 1.12-2.08 2.46 0 1.34.76 2.46 2.08 2.46zm.22-.95c-.79 0-1.21-.61-1.21-1.51s.42-1.51 1.2-1.51c.67 0 1.18.48 1.18 1.37v.28c0 .88-.5 1.37-1.17 1.37zm7.47.95A2 2 0 0 0 415 19.2l-.93-.47c-.13.52-.48.9-1.06.9-.74 0-1.24-.56-1.24-1.52s.5-1.53 1.24-1.53c.58 0 .93.39 1.06.9l.91-.5c-.25-.75-.95-1.33-1.97-1.33-1.35 0-2.32 1-2.32 2.46s.97 2.46 2.32 2.46zm4.1-.02c.62 0 1.12-.2 1.41-.53.16.38.58.54 1.36.45v-.84c-.3.04-.41-.05-.41-.32v-2.03c0-1.09-.69-1.63-1.82-1.63-1.04 0-1.74.61-1.97 1.4l1.02.23c.12-.46.4-.7.9-.7.58 0 .81.29.81.74v.08l-1.3.27c-.91.19-1.58.58-1.58 1.48 0 .85.69 1.4 1.59 1.4zm.17-.87c-.41 0-.68-.2-.68-.57 0-.43.34-.57.8-.67l1.01-.21v.57c0 .58-.55.88-1.13.88zm4.57.79v-2.49c0-.75.52-1.2 1.2-1.2.16 0 .26.01.4.03v-1.08l-.3-.02c-.61 0-1.1.3-1.3.73v-.7h-1.08v4.73h1.08zm4.07.1c.6 0 1.06-.25 1.36-.6v.5h1.08V14h-1.08v2.25c-.3-.36-.75-.6-1.36-.6-1.33 0-2.08 1.12-2.08 2.46 0 1.34.75 2.46 2.08 2.46zm.21-.95c-.78 0-1.2-.61-1.2-1.51s.42-1.51 1.2-1.51c.67 0 1.17.48 1.17 1.37v.28c0 .88-.5 1.37-1.17 1.37zm5.15.95c1.08 0 1.95-.62 1.95-1.57 0-1.08-1.01-1.25-1.81-1.42-.6-.13-.94-.2-.94-.53 0-.32.3-.52.73-.52.52 0 .97.25 1.24.67l.73-.66c-.34-.52-1.08-.89-1.9-.89-1.1 0-1.85.63-1.85 1.5 0 1 .86 1.2 1.6 1.35.75.15 1.15.2 1.15.6 0 .42-.43.58-.89.58-.55 0-1.09-.3-1.36-.76l-.81.65c.42.64 1.3 1 2.16 1z" mask="url(#b)"/><g fill="#FFF" mask="url(#b)"><path d="M447.07 15.77l1.16 1.16-3.85 3.85-3.85-3.85 1.16-1.16 2.69 2.7z"/></g><path fill="#2C3A57" fill-rule="nonzero" d="M218.34 69v-3.69l2.49 3.69h.78v-5.03h-.86v3.53l-2.35-3.53h-.92V69h.86zm5.1 0l.42-1.15h2.17l.43 1.15h.9l-1.9-5.03h-1.01l-1.9 5.03h.88zm2.3-1.93h-1.59l.79-2.1.8 2.1zm3.4 1.93v-3.89l1.3 3.89h.74l1.31-3.89V69h.83v-5.03h-1.2l-1.3 3.85-1.29-3.85h-1.23V69h.83zm8.92 0v-.78h-2.52V66.8h2.12v-.78h-2.12v-1.26h2.52v-.79h-3.4V69h3.4zm57.74.08a2 2 0 0 0 2-1.45l-.84-.29c-.15.59-.58.95-1.16.95-.83 0-1.42-.72-1.42-1.8 0-1.09.59-1.8 1.42-1.8.58 0 1.01.36 1.16.94l.84-.28a2 2 0 0 0-2-1.45c-1.34 0-2.31 1.06-2.31 2.59 0 1.52.97 2.59 2.3 2.59zm3.3-.08l.43-1.15h2.17l.44 1.15h.9l-1.9-5.03h-1.02l-1.9 5.03h.89zm2.3-1.93h-1.57l.78-2.1.8 2.1zm3.47 1.93v-1.95h.8L306.9 69h1.03l-1.3-2.02c.74-.17 1.17-.67 1.17-1.47 0-1.01-.7-1.54-1.82-1.54h-2V69h.89zm1.06-2.72h-1.06v-1.54h1.06c.64 0 .99.28.99.77 0 .5-.35.77-.99.77zm4.68 2.72c1.56 0 2.52-.98 2.52-2.51 0-1.54-.96-2.52-2.52-2.52h-1.68V69h1.68zm0-.77h-.8v-3.49h.79c1.04 0 1.65.68 1.65 1.75 0 1.05-.6 1.74-1.64 1.74zm6.3.77v-3.69L319.4 69h.78v-5.03h-.86v3.53l-2.35-3.53h-.92V69h.86zm6.56.07c1.2 0 2.03-.68 2.03-2.06v-3.04h-.9v3c0 .92-.46 1.3-1.13 1.3-.68 0-1.13-.38-1.13-1.3v-3h-.9V67c0 1.4.83 2.07 2.03 2.07zm4.12-.07v-3.89L328.9 69h.73l1.32-3.89V69h.83v-5.03h-1.2l-1.3 3.85-1.3-3.85h-1.22V69h.83zm7.65 0c1.04 0 1.69-.52 1.69-1.4 0-.62-.35-1.05-.88-1.22.35-.14.72-.46.72-1.08 0-.86-.58-1.33-1.66-1.33h-2V69h2.13zm-.21-2.95h-1.05v-1.32h1.05c.57 0 .89.22.89.66 0 .44-.32.66-.89.66zm.16 2.2h-1.21V66.8h1.21c.57 0 .88.3.88.71 0 .43-.31.72-.88.72zm6.19.75v-.78h-2.52V66.8h2.12v-.78h-2.12v-1.26h2.52v-.79h-3.4V69h3.4zm2.04 0v-1.95h.8l1.23 1.95h1.03l-1.3-2.02c.74-.17 1.17-.67 1.17-1.47 0-1.01-.7-1.54-1.82-1.54h-2.01V69h.9zm1.06-2.72h-1.06v-1.54h1.06c.64 0 .99.28.99.77 0 .5-.35.77-.99.77zm43.5 2.8a2 2 0 0 0 2.01-1.45l-.84-.29c-.15.59-.58.95-1.17.95-.82 0-1.41-.72-1.41-1.8 0-1.09.59-1.8 1.41-1.8.6 0 1.02.36 1.17.94l.84-.28a2 2 0 0 0-2-1.45c-1.34 0-2.32 1.06-2.32 2.59 0 1.52.98 2.59 2.31 2.59zm3.31-.08l.43-1.15h2.17l.44 1.15h.9l-1.9-5.03h-1.02L390.4 69h.88zm2.3-1.93h-1.57l.78-2.1.8 2.1zm3.47 1.93v-1.95h.8L399.1 69h1.02l-1.3-2.02c.74-.17 1.18-.67 1.18-1.47 0-1.01-.7-1.54-1.82-1.54h-2.01V69h.9zm1.06-2.72h-1.06v-1.54h1.06c.64 0 .99.28.99.77 0 .5-.35.77-1 .77zM402.8 69c1.56 0 2.52-.98 2.52-2.51 0-1.54-.96-2.52-2.52-2.52h-1.69V69h1.69zm0-.77h-.81v-3.49h.8c1.04 0 1.65.68 1.65 1.75 0 1.05-.6 1.74-1.64 1.74zm7.03.85c1.04 0 1.9-.61 1.9-1.6 0-1.1-.97-1.28-1.78-1.46-.68-.16-1.06-.25-1.06-.69 0-.4.37-.67.9-.67.6 0 .96.3 1.24.73l.66-.56c-.33-.53-1-.93-1.87-.93-1.01 0-1.81.6-1.81 1.52 0 .98.81 1.2 1.57 1.39.75.18 1.27.25 1.27.76 0 .49-.43.74-1 .74-.57 0-1.1-.31-1.44-.86l-.69.57c.4.64 1.25 1.06 2.11 1.06zm3.81-.08v-1.95h1.12c1.12 0 1.82-.53 1.82-1.54s-.7-1.54-1.82-1.54h-2.01V69h.9zm1.07-2.72h-1.06v-1.54h1.06c.64 0 .99.28.99.77 0 .5-.35.77-1 .77zm6.25 2.72v-.78h-2.52V66.8h2.12v-.78h-2.12v-1.26h2.52v-.79h-3.4V69h3.4zm2 0v-3.69l2.5 3.69h.78v-5.03h-.86v3.53l-2.36-3.53h-.92V69h.86zm6.3 0c1.56 0 2.52-.98 2.52-2.51 0-1.54-.96-2.52-2.52-2.52h-1.69V69h1.69zm0-.77h-.81v-3.49h.8c1.04 0 1.65.68 1.65 1.75 0 1.05-.6 1.74-1.64 1.74zm8.7.77v-.78h-2.37v-4.25h-.9V69h3.27zm1.86 0v-5.03h-.9V69h.9zm2.17 0v-3.89L443.3 69h.73l1.32-3.89V69h.83v-5.03h-1.2l-1.3 3.85-1.3-3.85h-1.23V69h.84zm6.42 0v-5.03h-.9V69h.9zm3.48 0v-4.24h1.62v-.79h-4.13v.79H451V69h.9z" mask="url(#b)"/><path fill="#707F98" fill-rule="nonzero" d="M220.2 94v-5.7h2.2v-.76h-5.25v.75h2.19V94h.86zm3.42.08a1.8 1.8 0 0 0 1.45-.61c.1.45.51.62 1.23.53v-.65c-.31.07-.5-.02-.5-.33v-2.3c0-1-.65-1.52-1.7-1.52-.97 0-1.66.55-1.89 1.32l.77.2c.14-.53.5-.8 1.09-.8.63 0 .93.3.93.84v.2l-1.15.23c-1.05.22-1.78.6-1.78 1.54 0 .85.7 1.35 1.55 1.35zm.1-.66c-.52 0-.85-.27-.85-.73 0-.56.49-.76 1.2-.9l.93-.2v.8c0 .61-.59 1.03-1.28 1.03zm4.96.63c.27 0 .5-.03.71-.08v-.69c-.19.05-.32.05-.51.05-.42 0-.66-.09-.66-.58v-2.76h1.07v-.7h-1.07v-1.37h-.8v1.37h-.73v.7h.73v2.89c0 .9.46 1.17 1.26 1.17zm2.64-5.58v-.93h-.88v.93h.88zm-.04 5.53v-4.7h-.8V94h.8zm2.65.08a1.8 1.8 0 0 0 1.45-.61c.1.45.51.62 1.23.53v-.65c-.31.07-.5-.02-.5-.33v-2.3c0-1-.65-1.52-1.7-1.52-.96 0-1.66.55-1.88 1.32l.76.2c.15-.53.5-.8 1.1-.8.62 0 .92.3.92.84v.2l-1.14.23c-1.06.22-1.79.6-1.79 1.54 0 .85.7 1.35 1.55 1.35zm.1-.66c-.51 0-.84-.27-.84-.73 0-.56.48-.76 1.2-.9l.92-.2v.8c0 .61-.59 1.03-1.28 1.03zm4.39.58v-2.8c0-.8.6-1.24 1.18-1.24.7 0 .98.5.98 1.15V94h.8v-3.1c0-1-.56-1.7-1.56-1.7-.66 0-1.13.34-1.4.73v-.64h-.81V94h.8zm5.56.08a1.8 1.8 0 0 0 1.45-.61c.1.45.51.62 1.23.53v-.65c-.31.07-.5-.02-.5-.33v-2.3c0-1-.65-1.52-1.7-1.52-.96 0-1.66.55-1.88 1.32l.76.2c.15-.53.5-.8 1.1-.8.62 0 .92.3.92.84v.2l-1.14.23c-1.06.22-1.79.6-1.79 1.54 0 .85.7 1.35 1.55 1.35zm.1-.66c-.51 0-.84-.27-.84-.73 0-.56.48-.76 1.2-.9l.92-.2v.8c0 .61-.59 1.03-1.28 1.03zm8.43.58l2.44-6.46h-.88l-2 5.38-2-5.38h-.92L251.6 94h.91zm3.33 0v-1.06h-1.03V94h1.03zm-36.08 24c1.97 0 3.2-1.26 3.2-3.23s-1.24-3.23-3.2-3.23h-2.05V118h2.05zm0-.75h-1.2v-4.97h1.2c1.47 0 2.36.98 2.36 2.49 0 1.5-.89 2.48-2.36 2.48zm5.52.83a1.8 1.8 0 0 0 1.45-.61c.1.45.52.62 1.24.53v-.65c-.32.07-.5-.02-.5-.33v-2.3c0-1-.66-1.52-1.71-1.52-.96 0-1.66.55-1.88 1.32l.76.2c.15-.53.5-.8 1.1-.8.62 0 .92.3.92.84v.2l-1.14.23c-1.06.22-1.78.6-1.78 1.54 0 .85.69 1.35 1.54 1.35zm.1-.66c-.51 0-.84-.27-.84-.73 0-.56.48-.76 1.2-.9l.92-.2v.8c0 .61-.59 1.03-1.28 1.03zm4.39.58v-2.8c0-.8.6-1.24 1.18-1.24.7 0 .98.5.98 1.15V118h.8v-3.1c0-1-.56-1.7-1.56-1.7-.66 0-1.13.34-1.4.73v-.64h-.81V118h.8zm5.23-5.53v-.93h-.88v.93h.88zm-.04 5.53v-4.7h-.8v4.7h.8zm3.35.1c.94 0 1.65-.51 1.94-1.35l-.71-.25c-.14.56-.6.9-1.22.9-.82 0-1.4-.63-1.44-1.62h3.4v-.27c0-1.3-.69-2.3-2-2.3-1.28 0-2.17 1.04-2.17 2.44 0 1.45.9 2.45 2.2 2.45zm1.16-2.94h-2.54c.14-.8.66-1.26 1.34-1.26.82 0 1.18.59 1.2 1.26zm2.75 2.84v-6.46h-.8V118h.8zm2.28 0v-6.46h-.8V118h.8zm3.35.1c.94 0 1.65-.51 1.94-1.35l-.71-.25c-.15.56-.6.9-1.23.9-.81 0-1.38-.63-1.43-1.62h3.4v-.27c0-1.3-.69-2.3-2-2.3-1.28 0-2.17 1.04-2.17 2.44 0 1.45.9 2.45 2.2 2.45zm1.16-2.94h-2.54c.14-.8.66-1.26 1.34-1.26.82 0 1.18.59 1.2 1.26zm8.09 2.84v-.76h-3.23v-5.7h-.86V118h4.09zm2.08 0v-1.06h-1.03V118h1.03z" mask="url(#b)"/><path stroke="#F5F9FB" stroke-linecap="square" mask="url(#b)" d="M216.7 78.03l230.8.47"/><path fill="#707F98" fill-rule="nonzero" d="M330.3 94v-1.68h1.26v-.72h-1.26v-4.06h-1.1l-2.83 4.1v.68h3.12V94h.8zm-.81-2.4h-2.24l2.24-3.23v3.23zm4.62 2.4v-6.5h-.64c-.07.75-.32 1.01-1.08 1.06l-.7.05v.64h1.56V94h.86zm5.58 0v-.76h-3.27l1.46-1.18c.93-.75 1.68-1.5 1.68-2.6 0-1.2-.83-2.02-2.13-2.02-1.19 0-2.13.87-2.13 2.02 0 .26.04.47.14.75h.81a1.92 1.92 0 0 1-.14-.7c0-.74.53-1.33 1.3-1.33.8 0 1.3.54 1.3 1.33 0 .84-.68 1.47-1.56 2.2l-1.9 1.58V94h4.44zm3.09 0c0-2.33.46-3.96 2.04-5.72v-.74h-4.62v1.85h.76v-1.1h2.94c-1.3 1.44-2 3.2-2 5.71h.88zm86.99.92v-.88c1.13-.12 2-.83 2-1.91 0-1.27-1.01-1.57-2-1.77V88.2c.62.11 1.06.49 1.34 1.04l.62-.52c-.33-.67-1.04-1.13-1.96-1.24v-.86h-.66v.85c-1.12.1-1.99.8-1.99 1.83 0 1.2 1 1.49 1.99 1.7v2.3a2.03 2.03 0 0 1-1.65-1.17l-.65.54a2.8 2.8 0 0 0 2.3 1.37v.87h.66zm-.66-4.7c-.67-.15-1.2-.37-1.2-.96 0-.6.5-1 1.2-1.07v2.02zm.66 3.1v-2.17c.67.16 1.21.4 1.21 1.03 0 .68-.52 1.05-1.21 1.14zm4.93.68v-6.5h-.65c-.06.75-.31 1.01-1.08 1.06l-.69.05v.64h1.56V94h.86zm3.69.1c1.53 0 2.45-1.36 2.45-3.33s-.92-3.33-2.45-3.33c-1.54 0-2.47 1.36-2.47 3.33s.93 3.33 2.47 3.33zm0-.76c-1.06 0-1.6-1.06-1.6-2.57 0-1.51.54-2.58 1.6-2.58 1.04 0 1.6 1.07 1.6 2.58s-.56 2.57-1.6 2.57zm5.72.76c1.53 0 2.46-1.36 2.46-3.33s-.93-3.33-2.46-3.33c-1.54 0-2.46 1.36-2.46 3.33s.92 3.33 2.46 3.33zm0-.76c-1.05 0-1.6-1.06-1.6-2.57 0-1.51.55-2.58 1.6-2.58s1.6 1.07 1.6 2.58-.55 2.57-1.6 2.57z" mask="url(#b)"/><g fill="#707F98" mask="url(#b)"><g transform="translate(299 89.166)"><ellipse cx="1.46" cy="1.48" rx="1.46" ry="1.48"/><ellipse cx="7.3" cy="1.48" rx="1.46" ry="1.48"/><ellipse cx="13.14" cy="1.48" rx="1.46" ry="1.48"/><ellipse cx="18.98" cy="1.48" rx="1.46" ry="1.48"/></g></g><g fill="#707F98" mask="url(#b)"><g transform="translate(299 102)"><path fill-rule="nonzero" d="M30.13 16v-.76h-3.27l1.46-1.18c.92-.75 1.68-1.5 1.68-2.6 0-1.2-.83-2.02-2.13-2.02-1.2 0-2.14.87-2.14 2.02 0 .26.05.47.15.75h.8a1.92 1.92 0 0 1-.14-.7c0-.74.53-1.33 1.3-1.33.8 0 1.31.54 1.31 1.33 0 .85-.68 1.47-1.56 2.2l-1.91 1.58V16h4.45zm2.9.1a2.2 2.2 0 0 0 2.26-2.2c0-1.22-.82-2.16-2.08-2.16-.57 0-1.01.23-1.3.5l.18-1.95h2.85v-.75h-3.52l-.27 3.32.79.13c.21-.3.63-.54 1.17-.54.82 0 1.37.65 1.37 1.47 0 .83-.63 1.46-1.44 1.46-.8 0-1.36-.53-1.5-1.36l-.83.17c.23 1.22 1.11 1.9 2.33 1.9zm5.4 0a2.2 2.2 0 0 0 2.25-2.22 2.1 2.1 0 0 0-2.1-2.16c-.83 0-1.46.46-1.75 1.02v-.09c0-1.51.76-2.5 1.76-2.5.75 0 1.18.46 1.36 1.08l.71-.3c-.28-.89-.93-1.5-2.04-1.5-1.5 0-2.58 1.35-2.58 3.4 0 1.8.74 3.27 2.4 3.27zm0-.71c-.81 0-1.44-.63-1.44-1.47s.65-1.48 1.46-1.48c.82 0 1.44.64 1.44 1.48s-.63 1.47-1.45 1.47zm5.35.61c0-2.33.46-3.96 2.04-5.71v-.75H41.2v1.85h.76v-1.1h2.94c-1.3 1.44-2 3.2-2 5.71h.88zm87.54.92v-.88c1.14-.12 2.01-.83 2.01-1.91 0-1.27-1.02-1.57-2-1.78v-2.14c.62.11 1.06.49 1.34 1.04l.62-.52c-.34-.67-1.04-1.13-1.97-1.24v-.86h-.65v.85c-1.12.1-2 .8-2 1.83 0 1.2 1.02 1.49 2 1.7v2.3a2.03 2.03 0 0 1-1.65-1.17l-.65.54a2.8 2.8 0 0 0 2.3 1.37v.87h.65zm-.65-4.7c-.67-.15-1.2-.37-1.2-.96 0-.6.5-1 1.2-1.06v2.01zm.65 3.1v-2.17c.68.16 1.22.4 1.22 1.03 0 .68-.52 1.05-1.22 1.14zm4.94.68V9.5h-.65c-.06.75-.31 1.01-1.08 1.06l-.7.05v.64h1.57V16h.86zm3.39.1a2.2 2.2 0 0 0 2.26-2.2c0-1.22-.83-2.16-2.1-2.16-.56 0-1 .23-1.28.5l.17-1.95h2.85v-.75h-3.51l-.28 3.32.79.13c.21-.3.63-.54 1.17-.54.82 0 1.38.65 1.38 1.47 0 .83-.63 1.46-1.45 1.46-.8 0-1.36-.53-1.5-1.36l-.83.17c.23 1.22 1.11 1.9 2.33 1.9zm5.46 0c1.53 0 2.46-1.36 2.46-3.33s-.93-3.33-2.46-3.33c-1.54 0-2.46 1.36-2.46 3.33s.92 3.33 2.46 3.33zm0-.76c-1.05 0-1.6-1.06-1.6-2.57 0-1.51.55-2.57 1.6-2.57s1.6 1.06 1.6 2.57c0 1.51-.55 2.57-1.6 2.57z"/><ellipse cx="1.46" cy="12.65" rx="1.46" ry="1.48"/><ellipse cx="7.3" cy="12.65" rx="1.46" ry="1.48"/><ellipse cx="13.14" cy="12.65" rx="1.46" ry="1.48"/><ellipse cx="18.98" cy="12.65" rx="1.46" ry="1.48"/></g></g><path fill="#707F98" fill-rule="nonzero" d="M220.2 142v-5.7h2.2v-.76h-5.25v.75h2.19V142h.86zm3.42.08a1.8 1.8 0 0 0 1.45-.61c.1.45.51.62 1.23.53v-.65c-.31.07-.5-.03-.5-.33v-2.3c0-1-.65-1.52-1.7-1.52-.97 0-1.66.55-1.89 1.32l.77.2c.14-.53.5-.8 1.09-.8.63 0 .93.3.93.84v.2l-1.15.23c-1.05.22-1.78.6-1.78 1.54 0 .85.7 1.35 1.55 1.35zm.1-.66c-.52 0-.85-.27-.85-.72 0-.57.49-.77 1.2-.91l.93-.2v.8c0 .61-.59 1.03-1.28 1.03zm4.38.58v-2.57c0-.83.55-1.37 1.24-1.37.15 0 .26 0 .4.03v-.81l-.33-.02c-.64 0-1.1.36-1.3.83v-.8h-.82V142h.81zm3.72.08a1.8 1.8 0 0 0 1.45-.61c.1.45.51.62 1.23.53v-.65c-.31.07-.5-.03-.5-.33v-2.3c0-1-.65-1.52-1.7-1.52-.96 0-1.66.55-1.88 1.32l.76.2c.15-.53.5-.8 1.1-.8.62 0 .92.3.92.84v.2l-1.14.23c-1.06.22-1.78.6-1.78 1.54 0 .85.69 1.35 1.54 1.35zm.1-.66c-.51 0-.84-.27-.84-.72 0-.57.48-.77 1.2-.91l.92-.2v.8c0 .61-.58 1.03-1.28 1.03zm7.59.68c1.27 0 2.34-.77 2.34-1.97s-.9-1.52-1.84-1.75l-.27-.07c-.05 0-.09-.02-.14-.03-.9-.21-1.5-.36-1.5-1.04 0-.62.56-1.05 1.34-1.05.84 0 1.35.42 1.69 1.04l.65-.52c-.38-.73-1.2-1.27-2.32-1.27-1.22 0-2.2.74-2.2 1.87 0 1.22 1 1.5 2.02 1.74.98.23 1.73.37 1.73 1.15 0 .74-.65 1.15-1.49 1.15a2.2 2.2 0 0 1-1.97-1.22l-.67.54c.44.87 1.51 1.43 2.63 1.43zm4.18-.1v-1.06h-1.02V142h1.02z" mask="url(#b)"/><g fill="#707F98" mask="url(#b)"><g transform="translate(299 126)"><path fill-rule="nonzero" d="M30.1 16c0-2.33.47-3.96 2.05-5.71v-.75h-4.62v1.85h.76v-1.1h2.94c-1.3 1.44-2 3.2-2 5.71h.88zm4.7.1a2.2 2.2 0 0 0 2.27-2.2c0-1.22-.83-2.16-2.1-2.16-.56 0-1 .23-1.28.5l.17-1.95h2.86v-.75H33.2l-.28 3.32.79.13c.22-.3.63-.54 1.17-.54.82 0 1.38.65 1.38 1.47 0 .83-.63 1.46-1.45 1.46-.8 0-1.36-.53-1.5-1.36l-.82.17c.22 1.22 1.1 1.9 2.32 1.9zm7.33-.1v-.76h-3.27l1.46-1.18c.93-.75 1.68-1.5 1.68-2.6 0-1.2-.83-2.02-2.13-2.02-1.19 0-2.13.87-2.13 2.02 0 .26.04.47.14.75h.81a1.92 1.92 0 0 1-.14-.7c0-.74.53-1.33 1.3-1.33.8 0 1.3.54 1.3 1.33 0 .85-.68 1.47-1.56 2.2l-1.9 1.58V16h4.44zm3.03 0V9.5h-.65c-.07.75-.32 1.01-1.08 1.06l-.7.05v.64h1.56V16h.87zm89.74.92v-.88c1.13-.12 2-.83 2-1.91 0-1.27-1.01-1.57-2-1.78v-2.14c.62.11 1.06.49 1.34 1.04l.62-.52c-.33-.67-1.03-1.13-1.96-1.24v-.86h-.66v.85c-1.11.1-1.99.8-1.99 1.83 0 1.2 1.01 1.49 2 1.7v2.3a2.03 2.03 0 0 1-1.65-1.17l-.65.54a2.8 2.8 0 0 0 2.3 1.37v.87h.65zm-.66-4.7c-.66-.15-1.2-.37-1.2-.96 0-.6.51-1 1.2-1.06v2.01zm.66 3.1v-2.17c.68.16 1.22.4 1.22 1.03 0 .68-.53 1.05-1.22 1.14zm7.06.68v-.76h-3.27l1.46-1.18c.93-.75 1.68-1.5 1.68-2.6 0-1.2-.82-2.02-2.13-2.02-1.19 0-2.13.87-2.13 2.02 0 .26.04.47.14.75h.81a1.92 1.92 0 0 1-.14-.7c0-.74.53-1.33 1.3-1.33.8 0 1.3.54 1.3 1.33 0 .85-.68 1.47-1.56 2.2l-1.9 1.58V16h4.44zm3.15.1c1.53 0 2.46-1.36 2.46-3.33s-.93-3.33-2.46-3.33c-1.54 0-2.46 1.36-2.46 3.33s.92 3.33 2.46 3.33zm0-.76c-1.05 0-1.6-1.06-1.6-2.57 0-1.51.55-2.57 1.6-2.57s1.6 1.06 1.6 2.57c0 1.51-.55 2.57-1.6 2.57zm0 24.76c1.53 0 2.46-1.36 2.46-3.33s-.93-3.33-2.46-3.33c-1.54 0-2.46 1.36-2.46 3.33s.92 3.33 2.46 3.33zm0-.76c-1.05 0-1.6-1.06-1.6-2.57 0-1.51.55-2.58 1.6-2.58s1.6 1.07 1.6 2.58-.55 2.57-1.6 2.57z"/><ellipse cx="1.46" cy="12.65" rx="1.46" ry="1.48"/><ellipse cx="7.3" cy="12.65" rx="1.46" ry="1.48"/><ellipse cx="13.14" cy="12.65" rx="1.46" ry="1.48"/><ellipse cx="18.98" cy="12.65" rx="1.46" ry="1.48"/></g></g><path fill="#707F98" fill-rule="nonzero" d="M220.2 166v-5.7h2.2v-.76h-5.25v.75h2.19V166h.86zm3.86 0v-2.8c0-.8.6-1.24 1.18-1.24.7 0 .98.5.98 1.15V166h.8v-3.1c0-1-.56-1.7-1.56-1.7-.66 0-1.13.34-1.4.73v-2.4h-.81V166h.8zm6.25.1c1.28 0 2.19-1 2.19-2.45 0-1.46-.9-2.45-2.2-2.45-1.28 0-2.18 1-2.18 2.45 0 1.46.9 2.45 2.19 2.45zm0-.7c-.83 0-1.37-.68-1.37-1.75 0-1.08.54-1.76 1.37-1.76.83 0 1.37.68 1.37 1.76 0 1.07-.54 1.76-1.37 1.76zm4.14.6v-2.82c0-.76.58-1.22 1.12-1.22.66 0 .93.5.93 1.15V166h.81v-2.82c0-.76.58-1.22 1.12-1.22.66 0 .94.5.94 1.15V166h.8v-3.1c0-1-.58-1.7-1.55-1.7a1.8 1.8 0 0 0-1.5.8c-.24-.48-.68-.8-1.31-.8-.66 0-1.1.34-1.36.73v-.64h-.8V166h.8zm8.33.08a1.8 1.8 0 0 0 1.45-.61c.1.45.51.62 1.23.53v-.65c-.31.07-.5-.03-.5-.33v-2.3c0-1-.65-1.52-1.7-1.52-.97 0-1.66.55-1.88 1.32l.76.2c.14-.53.5-.8 1.09-.8.63 0 .93.3.93.84v.2l-1.15.23c-1.05.22-1.78.6-1.78 1.54 0 .85.7 1.35 1.55 1.35zm.1-.66c-.51 0-.85-.27-.85-.72 0-.57.49-.77 1.2-.91l.93-.2v.8c0 .61-.59 1.03-1.28 1.03zm5.12.68c1.01 0 1.83-.6 1.83-1.5 0-1.02-.93-1.18-1.74-1.37-.66-.15-1.07-.23-1.07-.67 0-.42.36-.7.9-.7.6 0 1.04.3 1.28.77l.58-.45c-.28-.56-.98-.98-1.82-.98-1 0-1.73.59-1.73 1.43 0 .96.8 1.13 1.58 1.3.78.16 1.23.23 1.23.75 0 .51-.49.74-1.04.74-.61 0-1.19-.33-1.44-.88l-.63.46c.36.73 1.22 1.1 2.07 1.1zm7.06-.1c1.96 0 3.2-1.26 3.2-3.23s-1.24-3.23-3.2-3.23H253V166h2.06zm0-.75h-1.21v-4.97h1.2c1.47 0 2.36.98 2.36 2.49 0 1.5-.89 2.48-2.36 2.48zm4.7.75v-1.06h-1.02V166h1.02z" mask="url(#b)"/><g fill="#707F98" mask="url(#b)"><g transform="translate(299 150)"><path fill-rule="nonzero" d="M29.32 16.1a2.2 2.2 0 0 0 2.25-2.2c0-1.22-.82-2.16-2.08-2.16-.57 0-1.01.23-1.3.5l.18-1.95h2.85v-.75H27.7l-.27 3.32.79.13c.21-.3.63-.54 1.17-.54.82 0 1.37.65 1.37 1.47 0 .83-.63 1.46-1.44 1.46-.8 0-1.36-.53-1.5-1.36l-.83.17c.23 1.22 1.11 1.9 2.33 1.9zm5.3 0c1.34 0 2.21-.85 2.21-1.9 0-.9-.55-1.4-1.2-1.57.55-.19 1-.73 1-1.43 0-1.02-.73-1.76-2-1.76-1.23 0-2.07.82-2.24 1.9l.77.15c.15-.8.69-1.32 1.46-1.32.74 0 1.2.41 1.2 1.08 0 .65-.5 1.02-1.25 1.02h-.7V13h.69c.82 0 1.44.38 1.44 1.15 0 .76-.57 1.23-1.39 1.23-.81 0-1.45-.52-1.57-1.42l-.84.18c.2 1.28 1.19 1.96 2.42 1.96zm6.72-.1v-1.68h1.26v-.72h-1.25V9.54h-1.1l-2.84 4.1v.68h3.13V16h.8zm-.81-2.4h-2.24l2.24-3.23v3.23zm4.63 2.4V9.5h-.65c-.07.75-.32 1.01-1.08 1.06l-.7.05v.64h1.56V16h.87zm86.29.92v-.88c1.13-.12 2-.83 2-1.91 0-1.27-1.01-1.57-2-1.78v-2.14c.62.11 1.06.49 1.34 1.04l.62-.52c-.33-.67-1.03-1.13-1.96-1.24v-.86h-.66v.85c-1.11.1-1.99.8-1.99 1.83 0 1.2 1.01 1.49 2 1.7v2.3a2.03 2.03 0 0 1-1.65-1.17l-.65.54a2.8 2.8 0 0 0 2.3 1.37v.87h.65zm-.66-4.7c-.66-.15-1.2-.37-1.2-.96 0-.6.51-1 1.2-1.06v2.01zm.66 3.1v-2.17c.68.16 1.22.4 1.22 1.03 0 .68-.53 1.05-1.22 1.14zm4.94.68V9.5h-.65c-.07.75-.32 1.01-1.08 1.06l-.7.05v.64h1.56V16h.87zm5.57 0v-.76h-3.27l1.46-1.18c.93-.75 1.68-1.5 1.68-2.6 0-1.2-.82-2.02-2.13-2.02-1.19 0-2.13.87-2.13 2.02 0 .26.04.47.14.75h.81a1.92 1.92 0 0 1-.14-.7c0-.74.53-1.33 1.3-1.33.8 0 1.3.54 1.3 1.33 0 .85-.68 1.47-1.56 2.2l-1.9 1.58V16h4.44zm3.15.1c1.53 0 2.46-1.36 2.46-3.33s-.93-3.33-2.46-3.33c-1.54 0-2.46 1.36-2.46 3.33s.92 3.33 2.46 3.33zm0-.76c-1.05 0-1.6-1.06-1.6-2.57 0-1.51.55-2.57 1.6-2.57s1.6 1.06 1.6 2.57c0 1.51-.55 2.57-1.6 2.57z"/><ellipse cx="1.46" cy="12.65" rx="1.46" ry="1.48"/><ellipse cx="7.3" cy="12.65" rx="1.46" ry="1.48"/><ellipse cx="13.14" cy="12.65" rx="1.46" ry="1.48"/><ellipse cx="18.98" cy="12.65" rx="1.46" ry="1.48"/></g></g><path fill="#707F98" fill-rule="nonzero" d="M218.16 190.07c1.25 0 1.97-.57 1.97-1.87v-4.66h-.86v4.6c0 .88-.4 1.16-1.2 1.16-.3 0-.51-.03-.83-.1v.78c.3.06.58.1.92.1zm5.24.03c.94 0 1.65-.51 1.94-1.35l-.71-.25c-.15.56-.6.9-1.23.9-.82 0-1.38-.63-1.43-1.62h3.4v-.27c0-1.3-.69-2.3-2-2.3-1.28 0-2.17 1.04-2.17 2.44 0 1.45.9 2.45 2.2 2.45zm1.15-2.94h-2.53c.14-.8.65-1.26 1.34-1.26.82 0 1.18.59 1.2 1.26zm2.76 2.84v-2.57c0-.83.55-1.37 1.23-1.37.16 0 .27 0 .4.03v-.81l-.32-.02c-.64 0-1.1.36-1.3.83v-.8h-.82V190h.81zm4.33.1c.94 0 1.65-.51 1.94-1.35l-.71-.25c-.15.56-.6.9-1.23.9-.82 0-1.38-.63-1.43-1.62h3.4v-.27c0-1.3-.69-2.3-2-2.3-1.28 0-2.17 1.04-2.17 2.44 0 1.45.9 2.45 2.2 2.45zm1.16-2.94h-2.54c.14-.8.65-1.26 1.34-1.26.82 0 1.18.59 1.2 1.26zm2.75 2.84v-2.82c0-.76.58-1.22 1.12-1.22.66 0 .93.5.93 1.15V190h.81v-2.82c0-.76.58-1.22 1.12-1.22.67 0 .94.5.94 1.15V190h.8v-3.1c0-1-.58-1.7-1.55-1.7a1.8 1.8 0 0 0-1.5.8c-.24-.48-.68-.8-1.3-.8-.67 0-1.12.34-1.37.73v-.64h-.8V190h.8zm8-5.53v-.93h-.89v.93h.89zm-.04 5.53v-4.7h-.8v4.7h.8zm2.65.08a1.8 1.8 0 0 0 1.45-.61c.1.45.51.62 1.23.53v-.65c-.31.07-.5-.03-.5-.33v-2.3c0-1-.65-1.52-1.7-1.52-.97 0-1.66.55-1.88 1.32l.76.2c.14-.53.5-.8 1.09-.8.63 0 .93.3.93.84v.2l-1.15.23c-1.05.22-1.78.6-1.78 1.54 0 .85.7 1.35 1.55 1.35zm.1-.66c-.51 0-.85-.27-.85-.72 0-.57.49-.77 1.2-.91l.93-.2v.8c0 .61-.59 1.03-1.28 1.03zm4.39.58v-2.8c0-.8.59-1.24 1.17-1.24.7 0 .99.5.99 1.15V190h.8v-3.1c0-1-.56-1.7-1.56-1.7-.67 0-1.14.34-1.4.73v-2.4h-.81V190h.8zm8.49 0c1.96 0 3.2-1.26 3.2-3.23s-1.24-3.23-3.2-3.23h-2.05V190h2.05zm0-.75h-1.2v-4.97h1.19c1.48 0 2.37.98 2.37 2.49 0 1.5-.9 2.48-2.36 2.48zm4.7.75v-1.06h-1.02V190h1.03z" mask="url(#b)"/><g fill="#707F98" mask="url(#b)"><g transform="translate(299 174)"><path fill-rule="nonzero" d="M29.14 16.1c1.53 0 2.46-1.36 2.46-3.33s-.93-3.33-2.46-3.33c-1.53 0-2.46 1.36-2.46 3.33s.93 3.33 2.46 3.33zm0-.76c-1.05 0-1.6-1.06-1.6-2.57 0-1.51.55-2.57 1.6-2.57s1.6 1.06 1.6 2.57c0 1.51-.55 2.57-1.6 2.57zm5.3.76c1.5 0 2.58-1.34 2.58-3.4 0-1.79-.74-3.26-2.4-3.26a2.2 2.2 0 0 0-2.24 2.22c0 1.22.9 2.15 2.1 2.15.82 0 1.45-.45 1.75-1.01v.09c0 1.5-.76 2.49-1.76 2.49-.75 0-1.18-.45-1.36-1.07l-.71.3c.28.89.92 1.49 2.04 1.49zm.17-3c-.82 0-1.44-.65-1.44-1.48 0-.84.63-1.47 1.45-1.47s1.45.63 1.45 1.47c0 .83-.65 1.48-1.46 1.48zm5.45 2.9V9.5h-.65c-.06.75-.31 1.01-1.08 1.06l-.7.05v.64h1.56V16h.87zm5.57 0v-.76h-3.26l1.45-1.18c.93-.75 1.69-1.5 1.69-2.6 0-1.2-.83-2.02-2.14-2.02-1.18 0-2.13.87-2.13 2.02 0 .26.05.47.14.75h.81a1.92 1.92 0 0 1-.14-.7c0-.74.53-1.33 1.3-1.33.8 0 1.31.54 1.31 1.33 0 .85-.68 1.47-1.57 2.2l-1.9 1.58V16h4.44zm83.44.92v-.88c1.14-.12 2.01-.83 2.01-1.91 0-1.27-1.02-1.57-2-1.78v-2.14c.62.11 1.06.49 1.34 1.04l.62-.52c-.34-.67-1.04-1.13-1.97-1.24v-.86h-.65v.85c-1.12.1-2 .8-2 1.83 0 1.2 1.02 1.49 2 1.7v2.3a2.03 2.03 0 0 1-1.65-1.17l-.65.54a2.8 2.8 0 0 0 2.3 1.37v.87h.65zm-.65-4.7c-.67-.15-1.2-.37-1.2-.96 0-.6.5-1 1.2-1.06v2.01zm.65 3.1v-2.17c.68.16 1.22.4 1.22 1.03 0 .68-.52 1.05-1.22 1.14zm4.93.78c1.34 0 2.21-.85 2.21-1.9 0-.9-.55-1.4-1.2-1.57.55-.19 1-.73 1-1.43 0-1.02-.73-1.76-2-1.76-1.23 0-2.07.82-2.24 1.9l.77.15c.15-.8.69-1.32 1.46-1.32.74 0 1.2.41 1.2 1.08 0 .65-.5 1.02-1.25 1.02h-.7V13h.69c.82 0 1.44.38 1.44 1.15 0 .76-.57 1.23-1.39 1.23-.8 0-1.45-.52-1.57-1.42l-.84.18c.2 1.28 1.19 1.96 2.42 1.96zm5.39 0c1.53 0 2.45-1.36 2.45-3.33s-.92-3.33-2.45-3.33c-1.54 0-2.47 1.36-2.47 3.33s.93 3.33 2.47 3.33zm0-.76c-1.06 0-1.6-1.06-1.6-2.57 0-1.51.54-2.57 1.6-2.57 1.04 0 1.6 1.06 1.6 2.57 0 1.51-.56 2.57-1.6 2.57zm5.72.76c1.53 0 2.46-1.36 2.46-3.33s-.93-3.33-2.46-3.33c-1.54 0-2.46 1.36-2.46 3.33s.92 3.33 2.46 3.33zm0-.76c-1.05 0-1.6-1.06-1.6-2.57 0-1.51.55-2.57 1.6-2.57s1.6 1.06 1.6 2.57c0 1.51-.55 2.57-1.6 2.57z"/><ellipse cx="1.46" cy="12.65" rx="1.46" ry="1.48"/><ellipse cx="7.3" cy="12.65" rx="1.46" ry="1.48"/><ellipse cx="13.14" cy="12.65" rx="1.46" ry="1.48"/><ellipse cx="18.98" cy="12.65" rx="1.46" ry="1.48"/></g></g><path fill="#707F98" fill-rule="nonzero" d="M218 214l.66-1.7h2.9l.65 1.7h.87l-2.49-6.46h-.95l-2.5 6.46h.87zm3.27-2.46h-2.33l1.16-3.03 1.17 3.03zm3.5 2.46v-6.46h-.8V214h.8zm3.36.1c.94 0 1.65-.51 1.94-1.35l-.72-.25c-.14.56-.59.9-1.22.9-.82 0-1.39-.63-1.43-1.62h3.4v-.27c0-1.3-.7-2.3-2-2.3-1.28 0-2.17 1.04-2.17 2.44 0 1.45.9 2.45 2.2 2.45zm1.15-2.94h-2.54c.15-.8.66-1.26 1.34-1.26.82 0 1.18.59 1.2 1.26zm2.06 2.84l1.3-1.85 1.3 1.85h.92l-1.73-2.46 1.57-2.25h-.89l-1.15 1.65-1.13-1.65h-.93l1.57 2.25-1.71 2.46h.88zm7.28 0v-5.2l3.52 5.2h.75v-6.46h-.84v5l-3.35-5h-.91V214h.83zm6.61 0v-1.06h-1.02V214h1.02z" mask="url(#b)"/><g fill="#707F98" mask="url(#b)"><g transform="translate(299 198)"><path fill-rule="nonzero" d="M29.51 16V9.5h-.64c-.07.75-.32 1.01-1.08 1.06l-.7.05v.64h1.56V16h.86zm4.94 0v-1.68h1.26v-.72h-1.25V9.54h-1.1l-2.84 4.1v.68h3.13V16h.8zm-.81-2.4H31.4l2.23-3.23v3.23zm4.78 2.4c0-2.33.46-3.96 2.04-5.71v-.75h-4.61v1.85h.75v-1.1h2.95c-1.31 1.44-2 3.2-2 5.71h.87zm4.8.09c1.39 0 2.4-.74 2.4-1.87 0-.82-.58-1.42-1.36-1.65.65-.25 1.02-.76 1.02-1.4 0-1.04-.88-1.73-2.06-1.73-1.17 0-2.05.7-2.05 1.73 0 .64.37 1.15 1 1.4-.76.23-1.33.83-1.33 1.65 0 1.13 1 1.87 2.38 1.87zm0-3.86c-.76 0-1.28-.42-1.28-1.05 0-.63.52-1.06 1.28-1.06.77 0 1.28.43 1.28 1.06 0 .63-.51 1.05-1.28 1.05zm0 3.18c-.9 0-1.54-.5-1.54-1.25 0-.72.63-1.22 1.54-1.22.9 0 1.56.5 1.56 1.22 0 .74-.65 1.25-1.56 1.25zm87.55 1.5v-.86c1.13-.13 2-.84 2-1.92 0-1.27-1.01-1.57-2-1.78v-2.14c.62.11 1.06.49 1.34 1.04l.62-.52c-.33-.67-1.04-1.13-1.96-1.24v-.86h-.66v.85c-1.12.1-1.99.8-1.99 1.83 0 1.2 1 1.49 1.99 1.7v2.3a2.03 2.03 0 0 1-1.65-1.17l-.65.54a2.8 2.8 0 0 0 2.3 1.37v.87h.66zm-.66-4.7c-.67-.14-1.2-.36-1.2-.95 0-.6.5-1 1.2-1.06v2.01zm.66 3.1v-2.16c.67.16 1.21.4 1.21 1.03 0 .68-.52 1.05-1.21 1.14zm4.93.69V9.5h-.65c-.06.75-.31 1.01-1.08 1.06l-.69.05v.64h1.56V16h.86zm3.69.1c1.53 0 2.45-1.36 2.45-3.33s-.92-3.33-2.45-3.33c-1.54 0-2.47 1.36-2.47 3.33s.93 3.33 2.47 3.33zm0-.76c-1.06 0-1.6-1.06-1.6-2.57 0-1.51.54-2.57 1.6-2.57 1.04 0 1.6 1.06 1.6 2.57 0 1.51-.56 2.57-1.6 2.57zm5.72.76c1.53 0 2.46-1.36 2.46-3.33s-.93-3.33-2.46-3.33c-1.54 0-2.46 1.36-2.46 3.33s.92 3.33 2.46 3.33zm0-.76c-1.05 0-1.6-1.06-1.6-2.57 0-1.51.55-2.57 1.6-2.57s1.6 1.06 1.6 2.57c0 1.51-.55 2.57-1.6 2.57z"/><ellipse cx="1.46" cy="12.65" rx="1.46" ry="1.48"/><ellipse cx="7.3" cy="12.65" rx="1.46" ry="1.48"/><ellipse cx="13.14" cy="12.65" rx="1.46" ry="1.48"/><ellipse cx="18.98" cy="12.65" rx="1.46" ry="1.48"/></g></g><path fill="#707F98" fill-rule="nonzero" d="M218.52 238v-5.32l1.97 5.32h.7l1.97-5.32V238h.8v-6.46h-1.14l-1.97 5.3-1.96-5.3h-1.18V238h.81zm7.8-5.53v-.93h-.88v.93h.89zm-.03 5.53v-4.7h-.8v4.7h.8zm3.37.1c.98 0 1.66-.6 1.89-1.38l-.72-.33c-.14.58-.52 1-1.17 1-.84 0-1.41-.67-1.41-1.74 0-1.08.57-1.75 1.41-1.75.65 0 1.03.43 1.17 1l.7-.35a1.85 1.85 0 0 0-1.87-1.35c-1.31 0-2.22 1-2.22 2.45 0 1.45.9 2.45 2.22 2.45zm4.13-.02a1.8 1.8 0 0 0 1.45-.61c.1.45.52.62 1.24.53v-.65c-.32.07-.5-.03-.5-.33v-2.3c0-1-.66-1.52-1.7-1.52-.97 0-1.66.55-1.89 1.32l.77.2c.14-.53.49-.8 1.08-.8.63 0 .93.3.93.84v.2l-1.14.23c-1.06.22-1.78.6-1.78 1.54 0 .85.69 1.35 1.54 1.35zm.1-.66c-.51 0-.84-.27-.84-.72 0-.57.48-.77 1.2-.91l.92-.2v.8c0 .61-.58 1.03-1.28 1.03zm5.46.68c.94 0 1.65-.51 1.94-1.35l-.72-.25c-.14.56-.59.9-1.22.9-.82 0-1.39-.63-1.43-1.62h3.4v-.27c0-1.3-.7-2.3-2-2.3-1.28 0-2.17 1.04-2.17 2.44 0 1.45.9 2.45 2.2 2.45zm1.15-2.94h-2.54c.15-.8.66-1.26 1.34-1.26.82 0 1.18.59 1.2 1.26zm2.76 2.84v-6.46h-.81V238h.8zm2.65.08a1.8 1.8 0 0 0 1.45-.61c.1.45.51.62 1.23.53v-.65c-.31.07-.5-.03-.5-.33v-2.3c0-1-.65-1.52-1.7-1.52-.97 0-1.66.55-1.89 1.32l.77.2c.14-.53.5-.8 1.09-.8.63 0 .92.3.92.84v.2l-1.14.23c-1.05.22-1.78.6-1.78 1.54 0 .85.7 1.35 1.55 1.35zm.1-.66c-.52 0-.85-.27-.85-.72 0-.57.49-.77 1.2-.91l.92-.2v.8c0 .61-.58 1.03-1.27 1.03zm8.2.58c1.3 0 2.13-.66 2.13-1.78 0-.82-.49-1.39-1.22-1.59.5-.17 1-.58 1-1.4 0-1.09-.73-1.7-2.1-1.7h-2.38V238h2.57zm-.26-3.69h-1.47v-2.04h1.47c.87 0 1.34.33 1.34 1.02s-.47 1.02-1.34 1.02zm.23 2.96h-1.7v-2.22h1.7c.86 0 1.33.45 1.33 1.1 0 .67-.47 1.12-1.33 1.12zm4.07.73v-1.06h-1.03V238h1.03z" mask="url(#b)"/><g fill="#707F98" mask="url(#b)"><g transform="translate(299 222)"><path fill-rule="nonzero" d="M29.6 16c0-2.33.46-3.96 2.05-5.71v-.75h-4.62v1.85h.76v-1.1h2.94c-1.3 1.44-2 3.2-2 5.71h.87zm4.8.09c1.39 0 2.4-.74 2.4-1.87 0-.82-.58-1.42-1.35-1.65.65-.25 1.01-.76 1.01-1.4 0-1.04-.88-1.73-2.06-1.73-1.17 0-2.05.7-2.05 1.73 0 .64.37 1.15 1 1.4-.76.23-1.33.83-1.33 1.65 0 1.13 1 1.87 2.38 1.87zm0-3.86c-.75 0-1.27-.42-1.27-1.05 0-.63.52-1.06 1.27-1.06.77 0 1.28.43 1.28 1.06 0 .63-.51 1.05-1.28 1.05zm0 3.18c-.9 0-1.54-.5-1.54-1.25 0-.72.63-1.22 1.54-1.22s1.56.5 1.56 1.22c0 .74-.65 1.25-1.56 1.25zm5.14.69c1.49 0 2.58-1.34 2.58-3.4 0-1.79-.75-3.26-2.4-3.26a2.2 2.2 0 0 0-2.24 2.22c0 1.22.9 2.15 2.1 2.15.82 0 1.45-.45 1.75-1.01v.09c0 1.5-.77 2.49-1.77 2.49-.74 0-1.18-.45-1.36-1.07l-.7.3c.27.89.92 1.49 2.04 1.49zm.17-3c-.82 0-1.44-.65-1.44-1.48 0-.84.63-1.47 1.45-1.47s1.45.63 1.45 1.47c0 .83-.65 1.48-1.46 1.48zm5.45 2.9V9.5h-.65c-.07.75-.32 1.01-1.08 1.06l-.7.05v.64h1.56V16h.87zm86.16.92v-.88c1.14-.12 2.01-.83 2.01-1.91 0-1.27-1.02-1.57-2-1.78v-2.14c.62.11 1.06.49 1.34 1.04l.62-.52c-.34-.67-1.04-1.13-1.97-1.24v-.86h-.65v.85c-1.12.1-2 .8-2 1.83 0 1.2 1.02 1.49 2 1.7v2.3a2.03 2.03 0 0 1-1.65-1.17l-.65.54a2.8 2.8 0 0 0 2.3 1.37v.87h.65zm-.65-4.7c-.67-.15-1.2-.37-1.2-.96 0-.6.5-1 1.2-1.06v2.01zm.65 3.1v-2.17c.68.16 1.22.4 1.22 1.03 0 .68-.52 1.05-1.22 1.14zm4.94.68V9.5h-.65c-.06.75-.31 1.01-1.08 1.06l-.7.05v.64h1.57V16h.86zm3.39.1a2.2 2.2 0 0 0 2.26-2.2c0-1.22-.83-2.16-2.1-2.16-.56 0-1 .23-1.28.5l.17-1.95h2.85v-.75h-3.51l-.28 3.32.79.13c.21-.3.63-.54 1.17-.54.82 0 1.38.65 1.38 1.47 0 .83-.63 1.46-1.45 1.46-.8 0-1.36-.53-1.5-1.36l-.83.17c.23 1.22 1.11 1.9 2.33 1.9zm5.46 0c1.53 0 2.46-1.36 2.46-3.33s-.93-3.33-2.46-3.33c-1.54 0-2.46 1.36-2.46 3.33s.92 3.33 2.46 3.33zm0-.76c-1.05 0-1.6-1.06-1.6-2.57 0-1.51.55-2.57 1.6-2.57s1.6 1.06 1.6 2.57c0 1.51-.55 2.57-1.6 2.57z"/><ellipse cx="1.46" cy="12.65" rx="1.46" ry="1.48"/><ellipse cx="7.3" cy="12.65" rx="1.46" ry="1.48"/><ellipse cx="13.14" cy="12.65" rx="1.46" ry="1.48"/><ellipse cx="18.98" cy="12.65" rx="1.46" ry="1.48"/></g></g><path fill="#707F98" fill-rule="nonzero" d="M218.57 262v-2.87h2.8v-.76h-2.8v-2.08h3.32v-.75h-4.18V262h.86zm4.78 0v-2.57c0-.83.55-1.37 1.23-1.37.15 0 .26 0 .4.03v-.81l-.33-.02c-.64 0-1.1.36-1.3.83v-.8h-.81V262h.8zm3.72.08a1.8 1.8 0 0 0 1.45-.61c.1.45.51.62 1.23.53v-.65c-.31.07-.5-.03-.5-.33v-2.3c0-1-.65-1.52-1.7-1.52-.97 0-1.66.55-1.89 1.32l.77.2c.14-.53.5-.8 1.09-.8.63 0 .92.3.92.84v.2l-1.14.23c-1.05.22-1.78.6-1.78 1.54 0 .85.7 1.35 1.55 1.35zm.1-.66c-.52 0-.85-.27-.85-.73 0-.56.49-.76 1.2-.9l.92-.2v.8c0 .61-.58 1.03-1.27 1.03zm4.38.58v-2.8c0-.8.6-1.24 1.18-1.24.7 0 .98.5.98 1.15V262h.81v-3.1c0-1-.56-1.7-1.56-1.7-.67 0-1.14.35-1.4.73v-.64h-.82V262h.81zm5.2 0v-1.57l.68-.7 1.62 2.27h.95l-2-2.85 1.84-1.86h-1l-2.1 2.2v-3.95h-.8V262h.8zm4.93 0v-6.46h-.81V262h.8zm2.31-5.53v-.93h-.88v.93h.88zm-.03 5.53v-4.7h-.81v4.7h.8zm2.28 0v-2.8c0-.8.59-1.24 1.17-1.24.7 0 .99.5.99 1.15V262h.8v-3.1c0-1-.56-1.7-1.56-1.7-.67 0-1.13.35-1.4.73v-.64h-.81V262h.8zm7.3 0v-2.96h3.47V262h.86v-6.46H257v2.74h-3.46v-2.74h-.86V262h.86zm6.67 0v-1.06h-1.02V262h1.02z" mask="url(#b)"/><g fill="#707F98" mask="url(#b)"><g transform="translate(299 246)"><path fill-rule="nonzero" d="M29.03 16V9.5h-.65c-.06.75-.32 1.01-1.08 1.06l-.7.05v.64h1.56V16h.87zm3.38.1a2.2 2.2 0 0 0 2.26-2.2c0-1.22-.82-2.16-2.08-2.16-.57 0-1.01.23-1.3.5l.18-1.95h2.85v-.75H30.8l-.28 3.32.8.13c.21-.3.63-.54 1.17-.54.82 0 1.37.65 1.37 1.47 0 .83-.63 1.46-1.45 1.46-.8 0-1.35-.53-1.49-1.36l-.83.17c.23 1.22 1.1 1.9 2.32 1.9zm5.4 0a2.2 2.2 0 0 0 2.25-2.22 2.1 2.1 0 0 0-2.1-2.16c-.83 0-1.46.46-1.75 1.02v-.09c0-1.51.76-2.5 1.76-2.5.75 0 1.18.46 1.36 1.08l.71-.3c-.28-.89-.93-1.5-2.04-1.5-1.5 0-2.59 1.35-2.59 3.4 0 1.8.75 3.27 2.4 3.27zm0-.71c-.81 0-1.44-.63-1.44-1.47s.65-1.48 1.46-1.48c.82 0 1.44.64 1.44 1.48s-.63 1.47-1.45 1.47zm6.74.61v-1.68h1.26v-.72h-1.25V9.54h-1.1l-2.83 4.1v.68h3.12V16h.8zm-.8-2.4H41.5l2.23-3.23v3.23zm85.42 3.32v-.88c1.14-.12 2.01-.83 2.01-1.91 0-1.27-1.02-1.57-2-1.78v-2.14c.61.11 1.06.49 1.33 1.04l.63-.52c-.34-.67-1.04-1.13-1.97-1.24v-.86h-.65v.85c-1.12.1-2 .8-2 1.83 0 1.2 1.02 1.49 2 1.7v2.3a2.03 2.03 0 0 1-1.65-1.17l-.65.54a2.8 2.8 0 0 0 2.3 1.37v.87h.65zm-.65-4.7c-.67-.15-1.2-.37-1.2-.96 0-.6.5-1 1.2-1.06v2.01zm.65 3.1v-2.17c.68.16 1.22.4 1.22 1.03 0 .68-.52 1.05-1.22 1.14zm7.06.68v-.76h-3.26l1.45-1.18c.93-.75 1.69-1.5 1.69-2.6 0-1.2-.83-2.02-2.14-2.02-1.18 0-2.13.87-2.13 2.02 0 .26.05.47.14.75h.81a1.92 1.92 0 0 1-.14-.7c0-.74.53-1.33 1.3-1.33.8 0 1.31.54 1.31 1.33 0 .85-.68 1.47-1.57 2.2l-1.9 1.58V16h4.44zm3.16.1c1.53 0 2.45-1.36 2.45-3.33s-.92-3.33-2.45-3.33c-1.54 0-2.47 1.36-2.47 3.33s.93 3.33 2.47 3.33zm0-.76c-1.06 0-1.6-1.06-1.6-2.57 0-1.51.54-2.57 1.6-2.57 1.04 0 1.6 1.06 1.6 2.57 0 1.51-.56 2.57-1.6 2.57zm5.72.76c1.53 0 2.46-1.36 2.46-3.33s-.93-3.33-2.46-3.33c-1.54 0-2.46 1.36-2.46 3.33s.92 3.33 2.46 3.33zm0-.76c-1.05 0-1.6-1.06-1.6-2.57 0-1.51.55-2.57 1.6-2.57s1.6 1.06 1.6 2.57c0 1.51-.55 2.57-1.6 2.57z"/><ellipse cx="1.46" cy="12.65" rx="1.46" ry="1.48"/><ellipse cx="7.3" cy="12.65" rx="1.46" ry="1.48"/><ellipse cx="13.14" cy="12.65" rx="1.46" ry="1.48"/><ellipse cx="18.98" cy="12.65" rx="1.46" ry="1.48"/></g></g><path fill="#707F98" fill-rule="nonzero" d="M218.57 286v-2.7h1.6c1.38 0 2.25-.68 2.25-1.89 0-1.23-.88-1.87-2.24-1.87h-2.47V286h.86zm1.56-3.46h-1.56v-2.25h1.56c.92 0 1.43.4 1.43 1.12 0 .73-.51 1.13-1.43 1.13zm4.3 3.54a1.8 1.8 0 0 0 1.45-.61c.1.45.51.62 1.23.53v-.65c-.32.07-.5-.03-.5-.33v-2.3c0-1-.65-1.52-1.7-1.52-.97 0-1.66.55-1.89 1.32l.77.2c.14-.53.5-.8 1.09-.8.63 0 .93.3.93.84v.2l-1.15.23c-1.05.22-1.78.6-1.78 1.54 0 .85.7 1.35 1.55 1.35zm.1-.66c-.52 0-.85-.27-.85-.73 0-.56.49-.76 1.2-.9l.93-.2v.8c0 .61-.59 1.03-1.28 1.03zm4.96.63c.27 0 .5-.03.71-.08v-.69c-.19.05-.32.05-.51.05-.42 0-.66-.09-.66-.58v-2.76h1.07v-.7h-1.07v-1.37h-.8v1.37h-.73v.7h.73v2.88c0 .9.46 1.18 1.26 1.18zm2.6-.05v-2.57c0-.83.55-1.37 1.24-1.37.15 0 .26 0 .4.03v-.81l-.33-.02c-.64 0-1.1.36-1.3.83v-.8h-.82V286h.81zm3.49-5.53v-.93h-.88v.93h.88zm-.04 5.53v-4.7h-.8v4.7h.8zm3.37.1c.98 0 1.67-.6 1.9-1.38l-.73-.33c-.13.58-.52 1-1.17 1-.84 0-1.41-.67-1.41-1.74 0-1.08.57-1.75 1.41-1.75.65 0 1.04.43 1.17 1l.7-.35a1.85 1.85 0 0 0-1.87-1.35c-1.31 0-2.22 1-2.22 2.45 0 1.45.9 2.45 2.22 2.45zm3.71-.1v-1.57l.69-.7 1.62 2.27h.94l-1.99-2.85 1.84-1.86h-1l-2.1 2.2v-3.95h-.8V286h.8zm8.7.1a2.5 2.5 0 0 0 2.5-1.8l-.82-.27c-.24.82-.84 1.3-1.68 1.3-1.2 0-2.04-1.03-2.04-2.56s.85-2.57 2.04-2.57c.84 0 1.44.49 1.68 1.3l.82-.26a2.5 2.5 0 0 0-2.5-1.8c-1.67 0-2.9 1.36-2.9 3.33s1.23 3.33 2.9 3.33zm4.33-.1v-1.06h-1.03V286h1.03z" mask="url(#b)"/><g fill="#707F98" mask="url(#b)"><g transform="translate(299 270)"><path fill-rule="nonzero" d="M29.9 16v-.76h-3.27l1.46-1.18c.93-.75 1.68-1.5 1.68-2.6 0-1.2-.82-2.02-2.13-2.02-1.19 0-2.13.87-2.13 2.02 0 .26.04.47.14.75h.81a1.92 1.92 0 0 1-.14-.7c0-.74.53-1.33 1.3-1.33.8 0 1.3.54 1.3 1.33 0 .85-.68 1.47-1.56 2.2l-1.9 1.58V16h4.44zm4.31 0v-1.68h1.26v-.72h-1.25V9.54h-1.1l-2.83 4.1v.68h3.12V16h.8zm-.8-2.4h-2.24l2.23-3.23v3.23zm5.03 2.5a2.2 2.2 0 0 0 2.24-2.22 2.1 2.1 0 0 0-2.1-2.16c-.83 0-1.46.46-1.75 1.02v-.09c0-1.51.76-2.5 1.76-2.5.75 0 1.18.46 1.36 1.08l.71-.3c-.28-.89-.93-1.5-2.04-1.5-1.5 0-2.58 1.35-2.58 3.4 0 1.8.74 3.27 2.4 3.27zm0-.71c-.82 0-1.45-.63-1.45-1.47s.65-1.48 1.46-1.48c.82 0 1.44.64 1.44 1.48s-.63 1.47-1.45 1.47zm5.34.61c0-2.33.46-3.96 2.04-5.71v-.75H41.2v1.85h.76v-1.1h2.94c-1.3 1.44-2 3.2-2 5.71h.88zm87.54.92v-.88c1.14-.12 2.01-.83 2.01-1.91 0-1.27-1.02-1.57-2-1.78v-2.14c.62.11 1.06.49 1.34 1.04l.62-.52c-.34-.67-1.04-1.13-1.97-1.24v-.86h-.65v.85c-1.12.1-2 .8-2 1.83 0 1.2 1.02 1.49 2 1.7v2.3a2.03 2.03 0 0 1-1.65-1.17l-.65.54a2.8 2.8 0 0 0 2.3 1.37v.87h.65zm-.65-4.7c-.67-.15-1.2-.37-1.2-.96 0-.6.5-1 1.2-1.06v2.01zm.65 3.1v-2.17c.68.16 1.22.4 1.22 1.03 0 .68-.52 1.05-1.22 1.14zm4.94.68V9.5h-.65c-.06.75-.31 1.01-1.08 1.06l-.7.05v.64h1.57V16h.86zm3.39.1a2.2 2.2 0 0 0 2.26-2.2c0-1.22-.83-2.16-2.1-2.16-.56 0-1 .23-1.28.5l.17-1.95h2.85v-.75h-3.51l-.28 3.32.79.13c.21-.3.63-.54 1.17-.54.82 0 1.38.65 1.38 1.47 0 .83-.63 1.46-1.45 1.46-.8 0-1.36-.53-1.5-1.36l-.83.17c.23 1.22 1.11 1.9 2.33 1.9zm5.46 0c1.53 0 2.46-1.36 2.46-3.33s-.93-3.33-2.46-3.33c-1.54 0-2.46 1.36-2.46 3.33s.92 3.33 2.46 3.33zm0-.76c-1.05 0-1.6-1.06-1.6-2.57 0-1.51.55-2.57 1.6-2.57s1.6 1.06 1.6 2.57c0 1.51-.55 2.57-1.6 2.57z"/><ellipse cx="1.46" cy="12.65" rx="1.46" ry="1.48"/><ellipse cx="7.3" cy="12.65" rx="1.46" ry="1.48"/><ellipse cx="13.14" cy="12.65" rx="1.46" ry="1.48"/><ellipse cx="18.98" cy="12.65" rx="1.46" ry="1.48"/></g></g><rect width="181" height="80" x="10.5" y="46.5" stroke="#E6ECF2" mask="url(#b)" rx="5"/><rect width="181" height="80" x="10.5" y="132.5" stroke="#E6ECF2" mask="url(#b)" rx="5"/><rect width="181" height="80" x="10.5" y="217.5" stroke="#E6ECF2" mask="url(#b)" rx="5"/></g></svg>
