<svg width="190" height="56" viewBox="0 0 190 56" fill="none" xmlns="http://www.w3.org/2000/svg">
<path d="M183.285 56H6.69926C3.03015 56 0 53.0208 0 49.3738V6.6164C0 2.968 3.03015 0 6.69926 0H183.284C186.952 0 190 2.968 190 6.6164V49.3738C190 53.0208 186.952 56 183.285 56Z" fill="black"/>
<path d="M188.635 49.1662C188.635 52.1286 186.223 54.5282 183.239 54.5282H6.65334C3.67105 54.5282 1.25031 52.1286 1.25031 49.1662V6.40599C1.25031 3.44499 3.67105 1.03699 6.65334 1.03699H183.238C186.223 1.03699 188.634 3.44499 188.634 6.40599L188.635 49.1662Z" fill="black"/>
<path d="M42.4467 27.6976C42.4059 23.1854 46.1608 20.9902 46.3325 20.888C44.2059 17.8038 40.9098 17.3824 39.7515 17.3488C36.9831 17.059 34.2978 18.9966 32.8876 18.9966C31.4492 18.9966 29.2776 17.3768 26.937 17.4244C23.9252 17.4706 21.1076 19.2052 19.5622 21.8988C16.373 27.391 18.7516 35.462 21.807 39.9014C23.3355 42.0756 25.1215 44.5032 27.4592 44.4178C29.7462 44.324 30.6005 42.9674 33.3605 42.9674C36.095 42.9674 36.8973 44.4178 39.2814 44.3632C41.7359 44.324 43.2813 42.1792 44.7562 39.9854C46.5225 37.4934 47.2319 35.0392 47.26 34.9132C47.2037 34.8936 42.4931 33.1058 42.4467 27.6976Z" fill="white"/>
<path d="M37.9429 14.4285C39.173 12.8983 40.0146 10.8165 39.781 8.70386C38.0006 8.78226 35.7727 9.92746 34.492 11.4255C33.3576 12.7443 32.3443 14.9059 32.606 16.9387C34.606 17.0871 36.6594 15.9349 37.9429 14.4285Z" fill="white"/>
<path d="M63.5802 44.1055H60.8442V26.2387H63.5802V44.1055Z" fill="white"/>
<path d="M70.724 26.6667C69.9977 29.2035 69.1364 31.2867 68.14 32.9163L66.4426 33.0928C67.1857 31.0767 67.7177 29.0187 68.0386 26.9187L70.724 26.6667Z" fill="white"/>
<path d="M84.1257 44.1051H81.2123L79.6163 39.1169H74.0683L72.5483 44.1051H69.711L75.2083 27.1203H78.603L84.1257 44.1051ZM79.135 37.0225L77.691 32.5873C77.539 32.1351 77.2519 31.0669 76.8297 29.3869H76.779C76.6101 30.1093 76.3399 31.1761 75.9683 32.5873L74.5497 37.0225H79.135Z" fill="white"/>
<path d="M98.2608 37.8291C98.2608 39.9123 97.695 41.5587 96.562 42.7683C95.5487 43.8449 94.2905 44.3811 92.7874 44.3811C91.1661 44.3811 90.0007 43.8015 89.2914 42.6423H89.2407V49.0935H86.5047V35.8873C86.5047 34.5755 86.4709 33.2329 86.4034 31.8553H88.8101L88.962 33.7971H89.0127C89.9247 32.3341 91.3096 31.6047 93.1674 31.6047C94.6198 31.6047 95.8316 32.1759 96.8027 33.3183C97.7752 34.4621 98.2608 35.9643 98.2608 37.8291ZM95.4741 37.9313C95.4741 36.7385 95.2039 35.7557 94.6635 34.9843C94.0723 34.1779 93.2786 33.7747 92.2821 33.7747C91.6066 33.7747 90.9929 33.9973 90.4455 34.4439C89.8966 34.8877 89.5377 35.4715 89.3688 36.1939C89.2843 36.5299 89.2421 36.8071 89.2421 37.0255V39.0667C89.2421 39.9585 89.5166 40.7103 90.0655 41.3221C90.6143 41.9353 91.3279 42.2419 92.2061 42.2419C93.2363 42.2419 94.0386 41.8471 94.6128 41.0575C95.187 40.2665 95.4741 39.2263 95.4741 37.9313Z" fill="white"/>
<path d="M112.423 37.8291C112.423 39.9123 111.857 41.5587 110.724 42.7683C109.712 43.8449 108.454 44.3811 106.949 44.3811C105.328 44.3811 104.163 43.8015 103.453 42.6423H103.404V49.0935H100.667V35.8873C100.667 34.5755 100.634 33.2329 100.568 31.8553H102.973L103.124 33.7971H103.176C104.088 32.3341 105.472 31.6047 107.329 31.6047C108.783 31.6047 109.994 32.1759 110.966 33.3183C111.936 34.4621 112.423 35.9643 112.423 37.8291ZM109.635 37.9313C109.635 36.7385 109.366 35.7557 108.824 34.9843C108.233 34.1779 107.439 33.7747 106.444 33.7747C105.769 33.7747 105.155 33.9973 104.607 34.4439C104.057 34.8877 103.698 35.4715 103.529 36.1939C103.444 36.5299 103.403 36.8071 103.403 37.0255V39.0667C103.403 39.9585 103.677 40.7103 104.225 41.3221C104.775 41.9353 105.488 42.2419 106.365 42.2419C107.396 42.2419 108.199 41.8471 108.773 41.0575C109.346 40.2665 109.635 39.2263 109.635 37.9313Z" fill="white"/>
<path d="M128.254 39.3438C128.254 40.7872 127.749 41.9632 126.74 42.8718C125.626 43.863 124.075 44.3586 122.088 44.3586C120.249 44.3586 118.775 44.0058 117.662 43.3002L118.294 41.0322C119.493 41.756 120.812 42.1158 122.247 42.1158C123.277 42.1158 124.081 41.8848 124.655 41.4214C125.229 40.9594 125.518 40.3406 125.518 39.5664C125.518 38.8762 125.282 38.2966 124.809 37.8248C124.336 37.3544 123.549 36.9162 122.453 36.5116C119.462 35.4014 117.966 33.7774 117.966 31.641C117.966 30.2438 118.491 29.1 119.538 28.2082C120.585 27.3164 121.978 26.8698 123.719 26.8698C125.273 26.8698 126.564 27.1386 127.595 27.6762L126.911 29.8924C125.949 29.3716 124.858 29.1112 123.643 29.1112C122.681 29.1112 121.928 29.3464 121.389 29.8168C120.933 30.2368 120.705 30.7492 120.705 31.3554C120.705 32.026 120.966 32.5804 121.491 33.0186C121.945 33.4218 122.772 33.8586 123.974 34.329C125.442 34.917 126.523 35.6058 127.215 36.3968C127.908 37.1878 128.254 38.1664 128.254 39.3438Z" fill="white"/>
<path d="M137.298 33.8992H134.285V39.8464C134.285 41.3584 134.815 42.1144 135.879 42.1144C136.369 42.1144 136.776 42.0724 137.097 41.9884L137.171 44.0548C136.632 44.2578 135.923 44.3572 135.043 44.3572C133.962 44.3572 133.119 44.031 132.511 43.3744C131.901 42.7192 131.599 41.6202 131.599 40.0746V33.9006H129.799V31.8594H131.599V29.6166L134.285 28.8102V31.8594H137.298V33.8992Z" fill="white"/>
<path d="M150.901 37.8822C150.901 39.7624 150.359 41.308 149.28 42.519C148.147 43.7622 146.647 44.3838 144.772 44.3838C142.964 44.3838 141.522 43.7874 140.451 42.5946C139.379 41.4018 138.843 39.8982 138.843 38.0838C138.843 36.1854 139.396 34.6314 140.503 33.4218C141.608 32.2122 143.099 31.6074 144.973 31.6074C146.782 31.6074 148.233 32.2038 149.331 33.3952C150.376 34.5544 150.901 36.0496 150.901 37.8822ZM148.064 37.969C148.064 36.8392 147.819 35.8718 147.328 35.0626C146.754 34.0868 145.937 33.5968 144.871 33.5968C143.774 33.5968 142.938 34.0868 142.364 35.0626C141.874 35.8718 141.631 36.856 141.631 38.018C141.631 39.1492 141.876 40.1166 142.364 40.9244C142.955 41.9016 143.783 42.3916 144.847 42.3916C145.894 42.3916 146.713 41.8946 147.304 40.9006C147.808 40.0746 148.064 39.0974 148.064 37.969Z" fill="white"/>
<path d="M159.791 34.2521C159.522 34.2017 159.235 34.1765 158.931 34.1765C157.968 34.1765 157.224 34.5377 156.702 35.2587C156.246 35.8985 156.018 36.7049 156.018 37.6793V44.1053H153.283L153.308 35.7137C153.308 34.3025 153.276 33.0173 153.207 31.8581H155.59L155.688 34.2017H155.766C156.054 33.3953 156.507 32.7499 157.135 32.2613C157.743 31.8245 158.402 31.6061 159.111 31.6061C159.364 31.6061 159.592 31.6229 159.792 31.6551V34.2521H159.791Z" fill="white"/>
<path d="M172.028 37.402C172.028 37.8906 171.993 38.3008 171.927 38.6368H163.719C163.751 39.8464 164.151 40.7704 164.909 41.4088C165.602 41.98 166.498 42.2642 167.595 42.2642C168.809 42.2642 169.917 42.071 170.912 41.686L171.344 43.576C170.179 44.08 168.801 44.332 167.215 44.332C165.305 44.332 163.806 43.7748 162.718 42.6562C161.63 41.539 161.085 40.0396 161.085 38.158C161.085 36.31 161.591 34.7728 162.603 33.5464C163.669 32.2346 165.103 31.5822 166.911 31.5822C168.684 31.5822 170.028 32.236 170.94 33.5464C171.666 34.588 172.028 35.8732 172.028 37.402ZM169.42 36.6964C169.437 35.89 169.258 35.1942 168.887 34.6048C168.414 33.8488 167.687 33.4708 166.707 33.4708C165.813 33.4708 165.088 33.8404 164.529 34.5782C164.073 35.1676 163.803 35.8732 163.719 36.6964H169.42Z" fill="white"/>
<path d="M67.3295 10.8893H64.6948V18.8063H63.2198V10.8893H60.5992V9.65448H67.3295V10.8893Z" fill="white"/>
<path d="M74.5656 15.1942C74.5656 15.4574 74.5459 15.6786 74.5107 15.8592H70.0872C70.1055 16.5116 70.318 17.0086 70.7276 17.353C71.1019 17.661 71.5833 17.815 72.1744 17.815C72.8302 17.815 73.427 17.7114 73.9632 17.5028L74.194 18.522C73.5663 18.7936 72.8246 18.9294 71.9689 18.9294C70.9415 18.9294 70.1322 18.6284 69.5453 18.0264C68.9585 17.4244 68.6657 16.6166 68.6657 15.603C68.6657 14.6076 68.9373 13.7788 69.4848 13.118C70.0576 12.4124 70.8303 12.0596 71.8042 12.0596C72.7599 12.0596 73.4833 12.4124 73.9745 13.118C74.3685 13.678 74.5656 14.371 74.5656 15.1942ZM73.1582 14.8148C73.168 14.3794 73.0709 14.0042 72.8725 13.6878C72.6163 13.2804 72.2265 13.076 71.6987 13.076C71.2159 13.076 70.8247 13.2748 70.5235 13.6738C70.2786 13.9916 70.1336 14.371 70.0872 14.8148H73.1582ZM73.7605 9.43604L72.1082 11.4044H71.0836L72.2715 9.43604H73.7605Z" fill="white"/>
<path d="M78.1811 18.8061H76.7061V9.17834H78.1811V18.8061Z" fill="white"/>
<path d="M86.2633 15.1942C86.2633 15.4574 86.2436 15.6786 86.2084 15.8592H81.7849C81.8032 16.5116 82.0157 17.0086 82.4253 17.353C82.7996 17.661 83.281 17.815 83.8721 17.815C84.5279 17.815 85.1247 17.7114 85.6609 17.5028L85.8917 18.522C85.264 18.7936 84.5223 18.9294 83.6666 18.9294C82.6392 18.9294 81.8299 18.6284 81.243 18.0264C80.6561 17.4244 80.3634 16.6166 80.3634 15.603C80.3634 14.6076 80.635 13.7788 81.1825 13.118C81.7553 12.4124 82.528 12.0596 83.5019 12.0596C84.4576 12.0596 85.181 12.4124 85.6721 13.118C86.0676 13.678 86.2633 14.371 86.2633 15.1942ZM84.8558 14.8148C84.8657 14.3794 84.7686 14.0042 84.5701 13.6878C84.314 13.2804 83.9241 13.076 83.3964 13.076C82.9136 13.076 82.5224 13.2748 82.2212 13.6738C81.9763 13.9916 81.8313 14.371 81.7849 14.8148H84.8558ZM85.4582 9.43604L83.8059 11.4044H82.7827L83.9706 9.43604H85.4582Z" fill="white"/>
<path d="M93.1431 12.3828L92.8574 13.4958C92.483 13.3152 92.0566 13.2242 91.5738 13.2242C90.9279 13.2242 90.4156 13.4398 90.037 13.8696C89.6598 14.2994 89.4712 14.8454 89.4712 15.5062C89.4712 16.2034 89.6696 16.755 90.0651 17.1624C90.4606 17.5698 90.9644 17.7742 91.5738 17.7742C92.0284 17.7742 92.4746 17.6846 92.9109 17.5026L93.1164 18.603C92.6336 18.8298 92.0256 18.9432 91.2867 18.9432C90.2762 18.9432 89.4712 18.638 88.8702 18.0262C88.2693 17.4144 87.9695 16.5982 87.9695 15.5748C87.9695 14.5528 88.2918 13.7114 88.9378 13.0562C89.5838 12.401 90.4521 12.072 91.5457 12.072C92.165 12.0706 92.6984 12.1742 93.1431 12.3828Z" fill="white"/>
<path d="M100.922 18.8061H99.4488V15.0541C99.4488 13.8711 99.0041 13.2789 98.1104 13.2789C97.4292 13.2789 96.9591 13.6219 96.7044 14.3079C96.6594 14.4521 96.6354 14.6285 96.6354 14.8357V18.8047H95.1605V9.17834H96.6354V13.1557H96.6636C97.1294 12.4319 97.7909 12.0707 98.6579 12.0707C99.2687 12.0707 99.7711 12.2695 100.172 12.6685C100.672 13.1655 100.922 13.9047 100.922 14.8819V18.8061Z" fill="white"/>
<path d="M108.488 18.806H107.164L107.054 18.0458H107.013C106.56 18.652 105.914 18.9558 105.075 18.9558C104.449 18.9558 103.942 18.7556 103.561 18.358C103.214 17.9968 103.041 17.5474 103.041 17.014C103.041 16.2076 103.379 15.593 104.059 15.1674C104.737 14.7418 105.692 14.5332 106.92 14.543V14.4198C106.92 13.5504 106.461 13.1164 105.542 13.1164C104.888 13.1164 104.311 13.2802 103.813 13.605L103.513 12.6418C104.129 12.2624 104.891 12.072 105.789 12.072C107.523 12.072 108.392 12.982 108.392 14.802V17.2324C108.392 17.8918 108.425 18.4168 108.488 18.806ZM106.957 16.538V15.5202C105.33 15.4922 104.516 15.936 104.516 16.8502C104.516 17.1946 104.609 17.4522 104.799 17.6244C104.989 17.7966 105.231 17.882 105.52 17.882C105.844 17.882 106.146 17.7798 106.422 17.5768C106.699 17.3724 106.87 17.1134 106.933 16.7956C106.948 16.7242 106.957 16.6374 106.957 16.538Z" fill="white"/>
<path d="M114.48 13.4972C114.334 13.4692 114.18 13.4566 114.016 13.4566C113.499 13.4566 113.098 13.6512 112.814 14.0404C112.569 14.3848 112.445 14.8188 112.445 15.3438V18.8074H110.973L110.987 14.2854C110.987 13.5252 110.967 12.8322 110.932 12.2078H112.215L112.27 13.4706H112.311C112.465 13.0352 112.709 12.6866 113.047 12.4248C113.374 12.1896 113.728 12.072 114.111 12.072C114.249 12.072 114.373 12.0804 114.48 12.0986V13.4972Z" fill="white"/>
<path d="M122.178 12.2065C122.143 12.7413 122.123 13.3657 122.123 14.0811V17.8555C122.123 19.2765 121.804 20.2733 121.169 20.8431C120.586 21.3681 119.767 21.6299 118.712 21.6299C117.791 21.6299 117.048 21.4577 116.485 21.1133L116.826 19.9863C117.382 20.3209 118.011 20.4889 118.712 20.4889C120.012 20.4889 120.664 19.7917 120.664 18.3973V17.7589H120.636C120.226 18.4295 119.575 18.7641 118.684 18.7641C117.881 18.7641 117.221 18.4617 116.705 17.8541C116.186 17.2479 115.927 16.4779 115.927 15.5455C115.927 14.4871 116.226 13.6303 116.826 12.9793C117.382 12.3731 118.06 12.0693 118.86 12.0693C119.762 12.0693 120.408 12.4179 120.8 13.1151H120.826L120.881 12.2051H122.178V12.2065ZM120.651 15.9823V14.8147C120.651 14.3709 120.51 13.9915 120.233 13.6737C119.953 13.3559 119.587 13.1991 119.128 13.1991C118.626 13.1991 118.214 13.4063 117.888 13.8235C117.565 14.2407 117.402 14.7965 117.402 15.4937C117.402 16.1279 117.552 16.6389 117.855 17.0281C118.163 17.4537 118.588 17.6665 119.127 17.6665C119.456 17.6665 119.75 17.5699 120.012 17.3753C120.274 17.1807 120.457 16.9161 120.568 16.5815C120.623 16.4163 120.651 16.2161 120.651 15.9823Z" fill="white"/>
<path d="M130.206 15.1943C130.206 15.4575 130.187 15.6787 130.151 15.8593H125.728C125.748 16.5117 125.959 17.0087 126.368 17.3531C126.743 17.6611 127.225 17.8151 127.816 17.8151C128.471 17.8151 129.068 17.7115 129.605 17.5029L129.836 18.5221C129.207 18.7937 128.467 18.9295 127.61 18.9295C126.582 18.9295 125.773 18.6285 125.187 18.0265C124.599 17.4245 124.308 16.6167 124.308 15.6031C124.308 14.6077 124.579 13.7789 125.127 13.1181C125.698 12.4125 126.471 12.0597 127.446 12.0597C128.401 12.0597 129.125 12.4125 129.615 13.1181C130.011 13.6781 130.206 14.3711 130.206 15.1943ZM128.799 14.8149C128.81 14.3795 128.713 14.0043 128.513 13.6879C128.257 13.2805 127.867 13.0761 127.339 13.0761C126.858 13.0761 126.465 13.2749 126.166 13.6739C125.921 13.9917 125.776 14.3711 125.728 14.8149H128.799Z" fill="white"/>
<path d="M135.858 13.4972C135.711 13.4692 135.558 13.4566 135.393 13.4566C134.874 13.4566 134.476 13.6512 134.191 14.0404C133.947 14.3848 133.823 14.8188 133.823 15.3438V18.8074H132.346L132.36 14.2854C132.36 13.5252 132.343 12.8322 132.308 12.2078H133.589L133.644 13.4706H133.685C133.838 13.0352 134.086 12.6866 134.421 12.4248C134.75 12.1896 135.105 12.072 135.488 12.072C135.623 12.072 135.747 12.0804 135.856 12.0986V13.4972H135.858Z" fill="white"/>
<path d="M147.626 18.8061H146.315L146.246 17.7463H146.205C145.787 18.5527 145.077 18.9559 144.077 18.9559C143.275 18.9559 142.612 18.6437 142.084 18.0193C141.556 17.3949 141.293 16.5843 141.293 15.5889C141.293 14.5207 141.579 13.6555 142.15 12.9947C142.706 12.3787 143.39 12.0707 144.198 12.0707C145.091 12.0707 145.715 12.3689 146.07 12.9667H146.098V9.17834H147.571V17.0281C147.571 17.6707 147.59 18.2629 147.626 18.8061ZM146.098 16.0229V14.9225C146.098 14.7321 146.084 14.5781 146.057 14.4605C145.974 14.1077 145.795 13.8109 145.521 13.5715C145.246 13.3321 144.918 13.2117 144.534 13.2117C143.987 13.2117 143.556 13.4287 143.239 13.8641C142.923 14.2995 142.766 14.8553 142.766 15.5343C142.766 16.1867 142.917 16.7159 143.22 17.1233C143.539 17.5573 143.967 17.7743 144.506 17.7743C144.99 17.7743 145.38 17.5937 145.671 17.2311C145.954 16.8965 146.098 16.4933 146.098 16.0229Z" fill="white"/>
<path d="M155.161 18.806H153.836L153.729 18.0458H153.688C153.232 18.652 152.586 18.9558 151.75 18.9558C151.121 18.9558 150.615 18.7556 150.233 18.358C149.887 17.9968 149.717 17.5474 149.717 17.014C149.717 16.2076 150.055 15.593 150.734 15.1674C151.41 14.7418 152.364 14.5332 153.593 14.543V14.4198C153.593 13.5504 153.134 13.1164 152.218 13.1164C151.563 13.1164 150.986 13.2802 150.487 13.605L150.187 12.6418C150.805 12.2624 151.565 12.072 152.463 12.072C154.199 12.072 155.066 12.982 155.066 14.802V17.2324C155.065 17.8918 155.097 18.4168 155.161 18.806ZM153.632 16.538V15.5202C152.002 15.4922 151.189 15.936 151.189 16.8502C151.189 17.1946 151.285 17.4522 151.475 17.6244C151.665 17.7966 151.904 17.882 152.192 17.882C152.519 17.882 152.819 17.7798 153.097 17.5768C153.372 17.3724 153.542 17.1134 153.605 16.7956C153.624 16.7242 153.632 16.6374 153.632 16.538Z" fill="white"/>
<path d="M163.406 18.8061H161.93V15.0261C161.93 13.8613 161.485 13.2789 160.594 13.2789C160.157 13.2789 159.803 13.4385 159.527 13.7591C159.256 14.0797 159.118 14.4577 159.118 14.8903V18.8047H157.644V14.0923C157.644 13.5127 157.625 12.8841 157.589 12.2037H158.887L158.956 13.2355H158.997C159.167 12.9149 159.423 12.6503 159.761 12.4389C160.159 12.1925 160.608 12.0679 161.097 12.0679C161.717 12.0679 162.232 12.2667 162.642 12.6657C163.15 13.1543 163.406 13.8837 163.406 14.8525V18.8061Z" fill="white"/>
<path d="M170.056 16.9104C170.056 17.5236 169.828 18.0164 169.375 18.3874C168.919 18.7584 168.291 18.9432 167.489 18.9432C166.733 18.9432 166.093 18.7934 165.565 18.4952L165.879 17.4088C166.39 17.7168 166.932 17.8708 167.503 17.8708C168.259 17.8708 168.636 17.595 168.636 17.042C168.636 16.7984 168.556 16.5968 168.391 16.4372C168.227 16.279 167.935 16.1222 167.517 15.9696C166.335 15.5342 165.744 14.9014 165.744 14.0684C165.744 13.4986 165.961 13.0226 166.398 12.6418C166.836 12.261 167.413 12.072 168.132 12.072C168.787 12.072 169.347 12.205 169.811 12.471L169.495 13.5252C169.068 13.2718 168.618 13.1458 168.145 13.1458C167.834 13.1458 167.592 13.2186 167.419 13.3628C167.248 13.5084 167.16 13.6918 167.16 13.9186C167.16 14.144 167.25 14.3288 167.431 14.473C167.588 14.6088 167.887 14.7572 168.334 14.9196C169.482 15.3522 170.056 16.0158 170.056 16.9104Z" fill="white"/>
</svg>
