<?xml version="1.0" encoding="UTF-8"?>
<svg width="30px" height="30px" viewBox="0 0 30 30" version="1.1" xmlns="http://www.w3.org/2000/svg" xmlns:xlink="http://www.w3.org/1999/xlink">
    <title>5f44fd6f9f481154f6f27325_Icon</title>
    <g id="Page-1" stroke="none" stroke-width="1" fill="none" fill-rule="evenodd">
        <g id="Plans" transform="translate(-187.000000, -2324.000000)" fill="#582D37">
            <g id="5f44fd6f9f481154f6f27325_Icon" transform="translate(187.000000, 2324.000000)">
                <path d="M15,30 C23.28425,30 30,23.28425 30,15 C30,6.715725 23.28425,0 15,0 C6.715725,0 0,6.715725 0,15 C0,23.28425 6.715725,30 15,30 Z" id="Path" fill-opacity="0.31801792" opacity="0.5"></path>
                <path d="M10.1872875,13.225625 C9.5938875,12.562625 8.6074375,12.53675 7.984,13.167875 C7.36055,13.798875 7.3361875,14.848 7.9296,15.511125 L12.604875,20.73525 C13.193125,21.3925 14.169,21.424625 14.79425,20.807125 L22.002,11.6220375 C22.63275,10.9991625 22.66925,9.9504375 22.083625,9.27965 C21.497875,8.60885 20.511875,8.5700125 19.881125,9.1928875 L13.801375,15.6065 L10.1872875,13.225625 Z" id="Path"></path>
            </g>
        </g>
    </g>
</svg>