<svg width="190" height="56" viewBox="0 0 190 56" fill="none" xmlns="http://www.w3.org/2000/svg">
<path d="M182.963 0H7.03704C3.15059 0 0 3.13401 0 7V49C0 52.866 3.15059 56 7.03704 56H182.963C186.849 56 190 52.866 190 49V7C190 3.13401 186.849 0 182.963 0Z" fill="black"/>
<path d="M95.9016 30.4503C94.7198 30.4559 93.5661 30.8095 92.5862 31.4667C91.6062 32.1238 90.844 33.055 90.3955 34.1427C89.9471 35.2304 89.8327 36.4259 90.0667 37.5782C90.3006 38.7305 90.8725 39.7881 91.7101 40.6174C92.5478 41.4467 93.6136 42.0107 94.7731 42.238C95.9327 42.4653 97.1339 42.3458 98.2252 41.8947C99.3166 41.4435 100.249 40.6809 100.905 39.703C101.561 38.7252 101.911 37.5759 101.911 36.4003C101.923 35.6134 101.775 34.8323 101.477 34.1034C101.178 33.3745 100.736 32.7128 100.175 32.1576C99.6141 31.6025 98.9468 31.1652 98.2127 30.8719C97.4786 30.5786 96.6926 30.4352 95.9016 30.4503ZM95.9016 40.0123C95.1748 40.0629 94.4495 39.8948 93.82 39.5299C93.1905 39.165 92.6859 38.6201 92.3719 37.9661C92.0578 37.3122 91.9488 36.5794 92.0589 35.8629C92.1691 35.1465 92.4934 34.4796 92.9896 33.949C93.4859 33.4183 94.1311 33.0485 94.8415 32.8874C95.5519 32.7264 96.2945 32.7817 96.9729 33.0461C97.6513 33.3104 98.234 33.7717 98.6454 34.3699C99.0567 34.9681 99.2776 35.6756 99.2794 36.4003C99.3021 36.8596 99.2321 37.3186 99.0735 37.7505C98.915 38.1824 98.6711 38.5783 98.3563 38.915C98.0415 39.2516 97.6621 39.5222 97.2405 39.7106C96.8189 39.8991 96.3637 40.0017 95.9016 40.0123ZM82.7986 30.4503C81.6162 30.4531 80.4612 30.8044 79.4794 31.4599C78.4976 32.1154 77.7331 33.0456 77.2825 34.1331C76.832 35.2205 76.7155 36.4164 76.9479 37.5697C77.1803 38.7229 77.7511 39.7818 78.5882 40.6125C79.4252 41.4433 80.491 42.0086 81.6509 42.237C82.8109 42.4655 84.0128 42.3468 85.105 41.8961C86.1971 41.4453 87.1305 40.6827 87.7871 39.7045C88.4437 38.7263 88.7942 37.5765 88.7942 36.4003C88.8057 35.6134 88.6579 34.8323 88.3596 34.1034C88.0612 33.3745 87.6185 32.7128 87.0578 32.1576C86.4971 31.6025 85.8298 31.1652 85.0957 30.8719C84.3615 30.5786 83.5756 30.4352 82.7846 30.4503H82.7986ZM82.7986 40.0123C82.0715 40.0657 81.345 39.9002 80.7138 39.5371C80.0825 39.1741 79.5758 38.6304 79.2595 37.9769C78.9432 37.3233 78.8321 36.5902 78.9405 35.873C79.0489 35.1558 79.3719 34.4876 79.8675 33.9555C80.363 33.4234 81.008 33.052 81.7187 32.8897C82.4293 32.7274 83.1727 32.7817 83.8519 33.0455C84.5311 33.3093 85.1147 33.7704 85.5268 34.3688C85.9389 34.9671 86.1604 35.675 86.1623 36.4003C86.185 36.8596 86.115 37.3186 85.9565 37.7505C85.798 38.1824 85.5541 38.5783 85.2393 38.915C84.9245 39.2516 84.5451 39.5222 84.1235 39.7106C83.7019 39.8991 83.2467 40.0017 82.7846 40.0123H82.7986ZM67.1905 32.2843V34.8043H73.2705C73.1752 35.9913 72.6792 37.1112 71.8631 37.9823C71.2548 38.5987 70.5236 39.0815 69.7164 39.3998C68.9092 39.718 68.044 39.8647 67.1764 39.8303C65.3847 39.8303 63.6664 39.1223 62.3995 37.8621C61.1326 36.6018 60.4209 34.8926 60.4209 33.1103C60.4209 31.3281 61.1326 29.6188 62.3995 28.3586C63.6664 27.0983 65.3847 26.3903 67.1764 26.3903C68.8904 26.3625 70.5454 27.012 71.7786 28.1963L73.5661 26.4183C72.7335 25.5798 71.7403 24.916 70.6451 24.4663C69.55 24.0166 68.3752 23.7901 67.1905 23.8003C65.9393 23.7519 64.6912 23.9552 63.5209 24.3981C62.3505 24.841 61.2822 25.5143 60.3797 26.3777C59.4773 27.2412 58.7593 28.277 58.2689 29.423C57.7785 30.5691 57.5258 31.8018 57.5258 33.0473C57.5258 34.2929 57.7785 35.5256 58.2689 36.6717C58.7593 37.8177 59.4773 38.8535 60.3797 39.7169C61.2822 40.5804 62.3505 41.2537 63.5209 41.6966C64.6912 42.1395 65.9393 42.3428 67.1905 42.2943C68.3952 42.3485 69.5975 42.1453 70.7167 41.6986C71.8358 41.2518 72.8458 40.5718 73.6786 39.7043C75.1531 38.0928 75.9404 35.9744 75.8742 33.7963C75.8787 33.2657 75.8316 32.7359 75.7335 32.2143L67.1905 32.2843ZM130.96 34.2443C130.593 33.1702 129.907 32.2322 128.992 31.5547C128.077 30.8772 126.977 30.4921 125.837 30.4503C125.067 30.4488 124.305 30.6044 123.598 30.9075C122.891 31.2105 122.254 31.6546 121.727 32.2123C121.199 32.7699 120.792 33.4293 120.531 34.1497C120.269 34.87 120.159 35.636 120.208 36.4003C120.19 37.1828 120.332 37.9607 120.624 38.6875C120.916 39.4143 121.352 40.0752 121.906 40.6305C122.461 41.1859 123.122 41.6245 123.851 41.9199C124.579 42.2154 125.36 42.3618 126.147 42.3503C127.131 42.3556 128.102 42.1179 128.971 41.6586C129.841 41.1993 130.582 40.5326 131.129 39.7183L129.088 38.3183C128.784 38.8234 128.352 39.2412 127.837 39.5308C127.321 39.8204 126.739 39.9718 126.147 39.9703C125.537 39.9934 124.935 39.8336 124.418 39.5115C123.9 39.1894 123.493 38.72 123.248 38.1643L131.256 34.8743L130.96 34.2443ZM122.797 36.2323C122.769 35.7993 122.827 35.365 122.97 34.9548C123.112 34.5445 123.335 34.1667 123.626 33.8434C123.917 33.52 124.27 33.2577 124.664 33.0717C125.058 32.8858 125.486 32.7799 125.922 32.7603C126.376 32.7306 126.828 32.8341 127.224 33.0581C127.619 33.2821 127.939 33.6167 128.145 34.0203L122.797 36.2323ZM116.295 42.0003H118.927V24.5003H116.295V42.0003ZM111.988 31.7803H111.89C111.493 31.3392 111.007 30.9864 110.464 30.7452C109.921 30.5039 109.332 30.3796 108.737 30.3803C107.199 30.4545 105.749 31.1145 104.687 32.2235C103.624 33.3326 103.032 34.8056 103.032 36.3373C103.032 37.8691 103.624 39.3421 104.687 40.4511C105.749 41.5601 107.199 42.2201 108.737 42.2943C109.334 42.3043 109.925 42.1841 110.47 41.9422C111.014 41.7004 111.499 41.3427 111.89 40.8943H111.974V41.7483C111.974 44.0303 110.75 45.2483 108.779 45.2483C108.123 45.2331 107.486 45.0239 106.95 44.6474C106.414 44.2709 106.002 43.7442 105.768 43.1343L103.473 44.0863C103.905 45.1312 104.641 46.024 105.586 46.6501C106.532 47.2762 107.644 47.6071 108.779 47.6003C111.862 47.6003 114.409 45.7943 114.409 41.3983V30.8003H111.988V31.7803ZM108.976 40.0123C108.069 39.9327 107.224 39.5178 106.608 38.8492C105.993 38.1806 105.651 37.3069 105.651 36.4003C105.651 35.4938 105.993 34.6201 106.608 33.9515C107.224 33.2829 108.069 32.8679 108.976 32.7883C109.427 32.8113 109.867 32.9237 110.273 33.1188C110.679 33.3139 111.042 33.5878 111.339 33.9244C111.637 34.261 111.864 34.6535 112.007 35.0787C112.15 35.5039 112.206 35.9533 112.171 36.4003C112.21 36.8493 112.156 37.3014 112.014 37.7291C111.872 38.1569 111.644 38.5516 111.344 38.8892C111.044 39.2269 110.678 39.5005 110.269 39.6935C109.859 39.8866 109.415 39.995 108.962 40.0123H108.976ZM143.289 24.5003H136.998V42.0003H139.63V35.3643H143.303C144.053 35.4179 144.806 35.3173 145.516 35.0686C146.225 34.8199 146.875 34.4285 147.425 33.9188C147.976 33.4092 148.415 32.7922 148.715 32.1063C149.015 31.4204 149.17 30.6804 149.17 29.9323C149.17 29.1843 149.015 28.4442 148.715 27.7584C148.415 27.0725 147.976 26.4555 147.425 25.9458C146.875 25.4362 146.225 25.0448 145.516 24.7961C144.806 24.5474 144.053 24.4467 143.303 24.5003H143.289ZM143.289 32.9003H139.616V26.9363H143.345C144.146 26.9363 144.914 27.2527 145.48 27.8159C146.046 28.3791 146.364 29.1429 146.364 29.9393C146.364 30.7358 146.046 31.4996 145.48 32.0628C144.914 32.6259 144.146 32.9423 143.345 32.9423L143.289 32.9003ZM159.516 30.3803C158.558 30.3234 157.604 30.5461 156.772 31.0211C155.939 31.4962 155.264 32.2029 154.83 33.0543L157.166 34.0203C157.396 33.598 157.745 33.2514 158.17 33.0228C158.595 32.7941 159.077 32.6932 159.559 32.7323C159.893 32.6935 160.231 32.7213 160.554 32.814C160.878 32.9067 161.179 33.0625 161.441 33.2723C161.703 33.4821 161.92 33.7418 162.081 34.036C162.241 34.3303 162.34 34.6534 162.373 34.9863V35.1683C161.528 34.7231 160.585 34.4923 159.629 34.4963C157.11 34.4963 154.562 35.8963 154.562 38.4303C154.587 38.9706 154.721 39.5005 154.955 39.9886C155.189 40.4767 155.52 40.9131 155.926 41.272C156.333 41.631 156.808 41.9051 157.323 42.0783C157.838 42.2515 158.383 42.3202 158.925 42.2803C159.588 42.3277 160.251 42.1967 160.846 41.9011C161.44 41.6055 161.943 41.1562 162.303 40.6003H162.388V42.0003H164.921V35.2663C164.921 32.2003 162.585 30.4223 159.587 30.4223L159.516 30.3803ZM159.193 39.9703C158.334 39.9703 157.138 39.5363 157.138 38.4863C157.138 37.0863 158.63 36.6243 159.953 36.6243C160.789 36.6038 161.615 36.8069 162.345 37.2123C162.257 37.9703 161.897 38.6711 161.331 39.1856C160.764 39.7001 160.03 39.9937 159.263 40.0123L159.193 39.9703ZM174.153 30.8003L171.142 38.3883H171.057L167.933 30.8003H165.118L169.805 41.4123L167.13 47.3063H169.875L177.081 30.8003H174.153ZM150.495 42.0003H153.127V24.5003H150.495V42.0003Z" fill="white"/>
<path d="M14.6946 10.5559C14.2359 11.1035 14.0044 11.8045 14.0472 12.5159V43.484C14.0044 44.1954 14.2359 44.8964 14.6946 45.444L14.7931 45.542L32.2309 28.2099V27.804L14.7931 10.4579L14.6946 10.5559Z" fill="url(#paint0_linear)"/>
<path d="M38.0002 33.9919L32.2299 28.2099V27.8039L38.0002 22.0079L38.1269 22.0779L45.0373 25.9839C47.0076 27.0899 47.0076 28.9099 45.0373 30.0299L38.155 33.9219L38.0002 33.9919Z" fill="url(#paint1_linear)"/>
<path d="M38.1674 33.908L32.2282 28L14.6919 45.444C15.0935 45.7952 15.6059 45.9958 16.1404 46.0111C16.6749 46.0265 17.198 45.8556 17.6193 45.528L38.1815 33.908" fill="url(#paint2_linear)"/>
<path d="M38.1695 22.0921L17.6073 10.4721C17.186 10.1445 16.6629 9.97359 16.1283 9.98893C15.5938 10.0043 15.0815 10.2049 14.6799 10.5561L32.2302 28.0001L38.1695 22.0921Z" fill="url(#paint3_linear)"/>
<path opacity="0.2" d="M37.9986 33.7817L17.6052 45.3317C17.1989 45.6339 16.7052 45.7972 16.1978 45.7972C15.6905 45.7972 15.1967 45.6339 14.7904 45.3317L14.6919 45.4297L14.7904 45.5277C15.1958 45.832 15.6899 45.9967 16.1978 45.9967C16.7057 45.9967 17.1998 45.832 17.6052 45.5277L38.1674 33.9077L37.9986 33.7817Z" fill="black"/>
<path opacity="0.12" d="M14.6946 45.248C14.2359 44.7004 14.0044 43.9995 14.0472 43.288V43.498C14.0044 44.2095 14.2359 44.9104 14.6946 45.458L14.7931 45.36L14.6946 45.248ZM45.0383 29.82L38.0013 33.782L38.128 33.908L45.0383 30.016C45.4304 29.8328 45.767 29.5499 46.0141 29.196C46.2612 28.842 46.4101 28.4295 46.4457 28C46.3666 28.3902 46.1986 28.7571 45.9546 29.0726C45.7106 29.3882 45.3972 29.6438 45.0383 29.82Z" fill="black"/>
<path opacity="0.25" d="M17.6067 10.6677L45.037 26.1797C45.3959 26.3559 45.7093 26.6116 45.9533 26.9271C46.1973 27.2426 46.3653 27.6095 46.4444 27.9997C46.4088 27.5703 46.2599 27.1577 46.0128 26.8038C45.7657 26.4498 45.4291 26.167 45.037 25.9837L17.6067 10.4717C15.6363 9.36573 14.0319 10.2897 14.0319 12.5297V12.7397C14.0741 10.4857 15.6504 9.56173 17.6067 10.6677Z" fill="white"/>
<path d="M58.0978 18.1999V9.79994H60.6875C61.258 9.77431 61.8278 9.86408 62.3624 10.0638C62.897 10.2635 63.3853 10.5691 63.7978 10.9619C64.1898 11.3628 64.4956 11.839 64.6964 12.3613C64.8972 12.8836 64.989 13.4412 64.966 13.9999C64.989 14.5587 64.8972 15.1163 64.6964 15.6386C64.4956 16.1609 64.1898 16.6371 63.7978 17.0379C63.3853 17.4308 62.897 17.7363 62.3624 17.9361C61.8278 18.1358 61.258 18.2256 60.6875 18.1999H58.0978ZM59.1815 17.1639H60.6734C61.0973 17.1859 61.5213 17.1229 61.9203 16.9785C62.3192 16.8342 62.6849 16.6116 62.9956 16.3239C63.2905 16.0153 63.5187 15.6499 63.6664 15.2502C63.814 14.8506 63.8779 14.4251 63.8541 13.9999C63.8903 13.5766 63.8332 13.1505 63.6871 12.7512C63.5409 12.352 63.3091 11.9892 63.0077 11.6881C62.7064 11.387 62.3427 11.1548 61.942 11.0076C61.5413 10.8605 61.1132 10.8019 60.6875 10.8359H59.1112L59.1815 17.1639ZM66.486 18.1999V9.79994H67.5556V18.1999H66.486ZM71.8764 18.3819C71.2279 18.3704 70.5988 18.1602 70.0749 17.7799C69.492 17.3837 69.0801 16.7841 68.9208 16.0999L69.906 15.7079C70.0189 16.1597 70.2696 16.5656 70.6238 16.8699C70.9621 17.1773 71.4041 17.3471 71.8623 17.3459C72.295 17.3602 72.7204 17.2322 73.0727 16.9819C73.2352 16.8695 73.3668 16.7184 73.4553 16.5422C73.5438 16.3661 73.5865 16.1707 73.5793 15.9739C73.5882 15.767 73.5469 15.5609 73.4586 15.3732C73.3704 15.1856 73.238 15.0218 73.0727 14.8959C72.5868 14.5704 72.0491 14.329 71.4823 14.1819C70.8515 14.0137 70.2686 13.7022 69.7793 13.2719C69.5921 13.0902 69.4442 12.8722 69.345 12.6314C69.2457 12.3906 69.1972 12.1321 69.2023 11.8719C69.2028 11.5748 69.267 11.2812 69.3908 11.0108C69.5146 10.7404 69.6951 10.4994 69.9201 10.3039C70.4258 9.84324 71.0924 9.59711 71.7778 9.61794C72.4038 9.58971 73.0204 9.77766 73.523 10.1499C73.9245 10.4414 74.2285 10.8463 74.3956 11.3119L73.4104 11.7179C73.3242 11.4201 73.1411 11.1591 72.8897 10.9759C72.576 10.7515 72.1994 10.6307 71.813 10.6307C71.4266 10.6307 71.05 10.7515 70.7364 10.9759C70.5988 11.075 70.4873 11.2057 70.4114 11.3568C70.3354 11.5079 70.2972 11.675 70.3001 11.8439C70.2995 11.9996 70.3362 12.1532 70.4072 12.292C70.4781 12.4308 70.5813 12.5507 70.7082 12.6419C71.0712 12.8997 71.4758 13.0938 71.9045 13.2159C72.2586 13.3276 72.6063 13.4585 72.946 13.6079C73.2442 13.7464 73.5272 13.9153 73.7904 14.1119C74.0689 14.3093 74.2918 14.5744 74.4378 14.8819C74.5923 15.2202 74.6692 15.5884 74.663 15.9599C74.67 16.3391 74.583 16.7141 74.4097 17.0519C74.2517 17.3563 74.0194 17.6162 73.7341 17.8079C73.4575 17.9968 73.1539 18.1432 72.8334 18.2419C72.5228 18.334 72.2005 18.3812 71.8764 18.3819ZM77.4075 18.1999H76.3238V9.79994H79.1386C79.8272 9.79111 80.4926 10.0469 80.9964 10.5139C81.2454 10.7421 81.4442 11.0191 81.5802 11.3276C81.7162 11.636 81.7864 11.9691 81.7864 12.3059C81.7864 12.6427 81.7162 12.9759 81.5802 13.2843C81.4442 13.5928 81.2454 13.8698 80.9964 14.0979C80.4934 14.5663 79.8274 14.8222 79.1386 14.8119H77.4075V18.1999ZM77.4075 13.7619H79.223C79.4289 13.7695 79.6338 13.7321 79.8235 13.6523C80.0132 13.5724 80.183 13.4522 80.3208 13.2999C80.457 13.1693 80.5654 13.0128 80.6394 12.8396C80.7134 12.6664 80.7515 12.4801 80.7515 12.2919C80.7515 12.1037 80.7134 11.9175 80.6394 11.7443C80.5654 11.5711 80.457 11.4145 80.3208 11.2839C80.183 11.1317 80.0132 11.0115 79.8235 10.9316C79.6338 10.8518 79.4289 10.8144 79.223 10.8219H77.4075V13.7619ZM90.0741 17.1079C89.2514 17.9218 88.1382 18.3787 86.9779 18.3787C85.8175 18.3787 84.7043 17.9218 83.8815 17.1079C83.0818 16.2659 82.6363 15.1514 82.6363 13.9929C82.6363 12.8345 83.0818 11.72 83.8815 10.8779C84.2871 10.4716 84.7695 10.1491 85.3009 9.92897C85.8323 9.70889 86.4022 9.59558 86.9779 9.59558C87.5535 9.59558 88.1234 9.70889 88.6548 9.92897C89.1862 10.1491 89.6686 10.4716 90.0741 10.8779C90.877 11.7184 91.3247 12.8335 91.3247 13.9929C91.3247 15.1524 90.877 16.2675 90.0741 17.1079ZM84.6838 16.4079C85.2931 17.0115 86.118 17.3504 86.9779 17.3504C87.8377 17.3504 88.6626 17.0115 89.2719 16.4079C89.8732 15.7486 90.2063 14.8902 90.2063 13.9999C90.2063 13.1097 89.8732 12.2513 89.2719 11.5919C88.6626 10.9884 87.8377 10.6495 86.9779 10.6495C86.118 10.6495 85.2931 10.9884 84.6838 11.5919C84.0825 12.2513 83.7494 13.1097 83.7494 13.9999C83.7494 14.8902 84.0825 15.7486 84.6838 16.4079ZM92.8186 18.1999V9.79994H94.1416L98.2512 16.3379V9.79994H99.3349V18.1999H98.209L93.9164 11.3539V18.1999H92.8186ZM101.263 18.1999V9.79994H102.347V18.1999H101.263ZM104.275 18.1999V9.79994H107.329C107.963 9.78802 108.578 10.0185 109.046 10.4439C109.281 10.647 109.469 10.8989 109.595 11.182C109.722 11.465 109.784 11.7722 109.778 12.0819C109.784 12.4551 109.676 12.8214 109.468 13.1319C109.262 13.4335 108.974 13.6713 108.638 13.8179C109.046 13.9524 109.404 14.2061 109.665 14.5459C109.936 14.8889 110.08 15.314 110.073 15.7499C110.081 16.0727 110.016 16.393 109.885 16.6882C109.754 16.9834 109.558 17.2462 109.313 17.4579C108.823 17.9076 108.179 18.1531 107.512 18.1439L104.275 18.1999ZM105.359 13.3979H107.329C107.513 13.4056 107.696 13.3732 107.867 13.3031C108.037 13.233 108.189 13.1268 108.314 12.9919C108.439 12.8795 108.539 12.7433 108.61 12.5914C108.68 12.4395 108.719 12.2751 108.725 12.1078C108.73 11.9406 108.701 11.774 108.64 11.618C108.58 11.462 108.488 11.3199 108.37 11.1999C108.253 11.0676 108.107 10.9626 107.944 10.8925C107.781 10.8223 107.605 10.7887 107.427 10.7939H105.359V13.3979ZM105.359 17.1639H107.54C107.731 17.1703 107.92 17.1347 108.096 17.0597C108.271 16.9846 108.427 16.8721 108.553 16.7299C108.802 16.4739 108.942 16.1335 108.947 15.7779C108.947 15.4066 108.799 15.0505 108.535 14.788C108.271 14.5254 107.913 14.3779 107.54 14.3779H105.359V17.1639ZM111.523 18.1999V9.79994H112.593V17.1639H116.252V18.1999H111.523ZM122.557 10.8359H118.715V13.4959H122.177V14.5039H118.715V17.1639H122.557V18.1999H117.631V9.79994H122.557V10.8359ZM129.116 18.3819C128.467 18.3704 127.838 18.1602 127.314 17.7799C126.731 17.3837 126.319 16.7841 126.16 16.0999L127.145 15.7079C127.258 16.1597 127.509 16.5656 127.863 16.8699C128.201 17.1773 128.643 17.3471 129.102 17.3459C129.534 17.3602 129.96 17.2322 130.312 16.9819C130.474 16.8695 130.606 16.7184 130.695 16.5422C130.783 16.3661 130.826 16.1707 130.819 15.9739C130.828 15.767 130.786 15.5609 130.698 15.3732C130.61 15.1856 130.477 15.0218 130.312 14.8959C129.826 14.5704 129.288 14.329 128.722 14.1819C128.091 14.0137 127.508 13.7022 127.019 13.2719C126.831 13.0902 126.684 12.8722 126.584 12.6314C126.485 12.3906 126.436 12.1321 126.442 11.8719C126.442 11.5748 126.506 11.2812 126.63 11.0108C126.754 10.7404 126.934 10.4994 127.159 10.3039C127.671 9.84487 128.343 9.6036 129.031 9.63193C129.657 9.60371 130.274 9.79166 130.776 10.1639C131.178 10.4554 131.482 10.8603 131.649 11.3259L130.664 11.7319C130.578 11.4341 130.394 11.1731 130.143 10.9899C129.829 10.7655 129.453 10.6447 129.066 10.6447C128.68 10.6447 128.303 10.7655 127.99 10.9899C127.852 11.089 127.741 11.2197 127.665 11.3708C127.589 11.5219 127.551 11.689 127.553 11.8579C127.553 12.0136 127.59 12.1672 127.661 12.306C127.731 12.4448 127.835 12.5647 127.962 12.6559C128.325 12.9137 128.729 13.1078 129.158 13.2299C129.512 13.3416 129.86 13.4725 130.199 13.6219C130.498 13.7604 130.781 13.9293 131.044 14.1259C131.322 14.3233 131.545 14.5884 131.691 14.8959C131.846 15.2342 131.923 15.6024 131.916 15.9739C131.923 16.3531 131.836 16.7281 131.663 17.0659C131.505 17.3703 131.273 17.6302 130.987 17.8219C130.711 18.0108 130.407 18.1572 130.087 18.2559C129.771 18.3446 129.444 18.3871 129.116 18.3819ZM136.434 18.3819C136.013 18.3988 135.593 18.3264 135.203 18.1695C134.812 18.0126 134.459 17.7748 134.168 17.4719C133.572 16.8195 133.258 15.9591 133.296 15.0779V9.79994H134.379V15.1199C134.352 15.7016 134.537 16.2736 134.9 16.7299C135.296 17.132 135.833 17.3643 136.399 17.3774C136.964 17.3904 137.512 17.1832 137.926 16.7999C138.29 16.3436 138.475 15.7716 138.447 15.1899V9.79994H139.53V15.0779C139.57 15.9544 139.267 16.8121 138.686 17.4719C138.397 17.7737 138.047 18.011 137.658 18.1679C137.27 18.3247 136.853 18.3977 136.434 18.3819ZM141.304 18.1999V9.79994H144.119C144.807 9.79111 145.473 10.0469 145.976 10.5139C146.439 10.9369 146.719 11.5212 146.758 12.1447C146.797 12.7683 146.593 13.3828 146.188 13.8599C145.829 14.2944 145.333 14.5954 144.78 14.7139L147.145 18.1999H145.864L143.556 14.7979H142.345V18.1999H141.304ZM142.387 13.7899H144.133C144.544 13.7982 144.942 13.6477 145.245 13.3699C145.394 13.2359 145.513 13.0716 145.593 12.888C145.673 12.7045 145.712 12.506 145.709 12.3059C145.706 11.9307 145.56 11.5705 145.301 11.2979C145.163 11.1457 144.993 11.0255 144.804 10.9456C144.614 10.8658 144.409 10.8284 144.203 10.8359H142.387V13.7899Z" fill="white" stroke="white" stroke-width="0.375407" stroke-miterlimit="10"/>
<defs>
<linearGradient id="paint0_linear" x1="30.6828" y1="12.1939" x2="7.1911" y2="35.8099" gradientUnits="userSpaceOnUse">
<stop stop-color="#00A0FF"/>
<stop offset="0.01" stop-color="#00A1FF"/>
<stop offset="0.26" stop-color="#00BEFF"/>
<stop offset="0.51" stop-color="#00D2FF"/>
<stop offset="0.76" stop-color="#00DFFF"/>
<stop offset="1" stop-color="#00E3FF"/>
</linearGradient>
<linearGradient id="paint1_linear" x1="47.6128" y1="27.9999" x2="13.5676" y2="27.9999" gradientUnits="userSpaceOnUse">
<stop stop-color="#FFE000"/>
<stop offset="0.41" stop-color="#FFBD00"/>
<stop offset="0.78" stop-color="#FFA500"/>
<stop offset="1" stop-color="#FF9C00"/>
</linearGradient>
<linearGradient id="paint2_linear" x1="34.9445" y1="31.22" x2="3.08086" y2="63.2381" gradientUnits="userSpaceOnUse">
<stop stop-color="#FF3A44"/>
<stop offset="1" stop-color="#C31162"/>
</linearGradient>
<linearGradient id="paint3_linear" x1="10.2747" y1="0.252055" x2="24.4985" y2="14.5511" gradientUnits="userSpaceOnUse">
<stop stop-color="#32A071"/>
<stop offset="0.07" stop-color="#2DA771"/>
<stop offset="0.48" stop-color="#15CF74"/>
<stop offset="0.8" stop-color="#06E775"/>
<stop offset="1" stop-color="#00F076"/>
</linearGradient>
</defs>
</svg>
